{"glyphs":{"0":{"ha":568,"x_min":53,"x_max":515,"o":"m 283 -14 q 110 53 167 -14 q 53 258 53 121 l 53 703 q 110 906 53 839 q 283 974 167 974 q 458 906 401 974 q 515 703 515 839 l 515 258 q 458 53 515 121 q 283 -14 401 -14 m 283 140 q 332 167 318 140 q 346 260 346 193 l 346 701 q 332 793 346 767 q 283 819 318 819 q 236 794 249 819 q 224 701 224 768 l 224 260 q 237 167 224 193 q 283 140 250 140 z "},"1":{"ha":407,"x_min":38,"x_max":343,"o":"m 169 760 l 38 653 l 38 851 l 169 958 l 343 958 l 343 0 l 169 0 l 169 760 z "},"2":{"ha":551,"x_min":47,"x_max":504,"o":"m 47 149 l 290 542 q 326 613 315 583 q 336 689 336 643 l 336 743 q 276 819 336 819 q 218 736 218 819 l 218 672 l 53 672 l 53 757 q 115 914 53 856 q 281 972 178 972 q 444 913 383 972 q 504 751 504 853 l 504 683 q 488 574 504 621 q 435 469 471 528 l 238 154 l 504 154 l 504 0 l 47 0 l 47 149 z "},"3":{"ha":554,"x_min":46,"x_max":501,"o":"m 272 -14 q 104 45 163 -14 q 46 207 46 104 l 46 278 l 211 278 l 211 215 q 271 140 211 140 q 318 161 306 140 q 331 225 331 182 l 331 324 q 317 396 331 375 q 261 417 303 417 l 225 417 l 225 569 l 264 569 q 317 590 304 569 q 331 654 331 610 l 331 733 q 317 797 331 776 q 271 818 304 818 q 211 743 211 818 l 211 685 l 46 685 l 46 753 q 106 913 46 854 q 274 972 167 972 q 442 913 382 972 q 501 743 501 853 l 501 678 q 481 567 501 608 q 406 500 460 525 q 483 433 464 475 q 501 315 501 392 l 501 217 q 441 47 501 108 q 272 -14 381 -14 z "},"4":{"ha":593,"x_min":38,"x_max":556,"o":"m 556 160 l 496 160 l 496 0 l 325 0 l 325 160 l 38 160 l 38 314 l 228 958 l 399 958 l 208 314 l 325 314 l 325 525 l 496 525 l 496 314 l 556 314 l 556 160 z "},"5":{"ha":564,"x_min":53,"x_max":511,"o":"m 282 -14 q 112 46 171 -14 q 53 219 53 106 l 53 264 l 221 264 l 221 226 q 235 160 221 181 q 281 139 249 139 q 326 160 313 139 q 340 226 340 181 l 340 394 q 281 476 340 476 q 244 465 258 476 q 219 428 231 453 l 64 428 l 64 958 l 511 958 l 511 803 l 219 803 l 219 589 q 328 625 260 625 q 511 401 511 625 l 511 224 q 452 46 511 106 q 282 -14 393 -14 z "},"6":{"ha":556,"x_min":47,"x_max":508,"o":"m 278 -14 q 106 47 165 -14 q 47 221 47 107 l 47 364 q 58 474 47 429 q 94 576 69 518 l 264 958 l 440 958 l 278 585 q 331 594 300 594 q 461 538 414 594 q 508 383 508 482 l 508 215 q 448 47 508 107 q 278 -14 388 -14 m 278 140 q 322 160 307 140 q 338 215 338 179 l 338 371 q 278 444 338 444 q 233 427 249 444 q 218 378 218 410 l 218 214 q 278 140 218 140 z "},"7":{"ha":529,"x_min":32,"x_max":497,"o":"m 497 958 l 497 804 l 263 0 l 92 0 l 326 804 l 32 804 l 32 958 l 497 958 z "},"8":{"ha":569,"x_min":53,"x_max":517,"o":"m 285 -14 q 113 48 172 -14 q 53 228 53 110 l 53 326 q 135 501 53 449 q 74 569 94 525 q 53 661 53 614 l 53 751 q 116 913 53 853 q 285 972 179 972 q 454 913 392 972 q 517 751 517 853 l 517 661 q 495 569 517 614 q 435 501 474 525 q 517 326 517 450 l 517 228 q 456 48 517 110 q 285 -14 396 -14 m 285 569 q 332 591 319 569 q 344 653 344 613 l 344 750 q 329 802 344 783 q 285 821 314 821 q 240 802 256 821 q 225 750 225 783 l 225 653 q 238 591 225 613 q 285 569 251 569 m 285 138 q 333 160 321 138 q 344 226 344 182 l 344 339 q 285 421 344 421 q 238 399 251 421 q 225 339 225 378 l 225 226 q 238 160 225 182 q 285 138 250 138 z "},"9":{"ha":556,"x_min":47,"x_max":508,"o":"m 278 374 q 225 364 258 364 q 94 420 142 364 q 47 575 47 476 l 47 743 q 108 912 47 851 q 279 972 168 972 q 450 912 392 972 q 508 738 508 851 l 508 594 q 498 484 508 529 q 463 382 488 439 l 292 0 l 115 0 l 278 374 m 279 514 q 322 531 307 514 q 338 581 338 549 l 338 744 q 279 818 338 818 q 218 743 218 818 l 218 588 q 279 514 218 514 z "},"\r":{"ha":243,"x_min":0,"x_max":0,"o":""}," ":{"ha":243,"x_min":0,"x_max":0,"o":""},"!":{"ha":289,"x_min":57,"x_max":232,"o":"m 57 958 l 232 958 l 199 306 l 90 306 l 57 958 m 68 176 l 219 176 l 219 0 l 68 0 l 68 176 z "},"\"":{"ha":488,"x_min":40,"x_max":447,"o":"m 40 958 l 197 958 l 197 553 l 40 553 l 40 958 m 290 958 l 447 958 l 447 553 l 290 553 l 290 958 z "},"#":{"ha":642,"x_min":19,"x_max":622,"o":"m 513 569 l 496 410 l 596 410 l 596 296 l 483 296 l 453 0 l 326 0 l 357 296 l 233 296 l 203 0 l 75 0 l 106 296 l 19 296 l 19 410 l 118 410 l 135 569 l 47 569 l 47 683 l 146 683 l 175 958 l 301 958 l 274 683 l 397 683 l 425 958 l 553 958 l 524 683 l 622 683 l 622 569 l 513 569 m 385 569 l 261 569 l 244 410 l 368 410 l 385 569 z "},"$":{"ha":594,"x_min":26,"x_max":522,"o":"m 522 293 q 478 130 522 193 q 351 47 433 67 l 351 -62 l 233 -62 l 233 39 q 81 115 133 49 q 26 296 29 182 l 186 296 q 210 210 189 239 q 274 182 232 182 q 337 208 317 182 q 357 289 357 233 q 335 358 357 332 q 261 408 313 385 l 193 439 q 72 531 108 476 q 35 681 35 586 q 88 844 35 781 q 233 921 142 907 l 233 1049 l 351 1049 l 351 915 q 468 832 426 894 q 513 669 510 769 l 357 669 q 338 751 356 724 q 279 778 321 778 q 200 689 200 778 q 219 622 200 647 q 281 581 239 597 l 346 554 q 481 455 440 515 q 522 293 522 394 m 124 958 z "},"%":{"ha":1058,"x_min":43,"x_max":1015,"o":"m 653 969 l 767 969 l 406 0 l 292 0 l 653 969 m 197 369 q 43 525 43 369 l 43 811 q 197 967 43 967 q 351 811 351 967 l 351 525 q 197 369 351 369 m 197 472 q 230 487 221 472 q 239 542 239 501 l 239 794 q 230 850 239 836 q 197 864 221 864 q 165 850 174 864 q 157 794 157 836 l 157 542 q 165 487 157 501 q 197 472 174 472 m 861 -10 q 707 146 707 -10 l 707 432 q 861 588 707 588 q 1015 432 1015 588 l 1015 146 q 861 -10 1015 -10 m 861 93 q 894 108 885 93 q 903 163 903 122 l 903 415 q 894 471 903 457 q 861 485 885 485 q 829 471 838 485 q 821 415 821 457 l 821 163 q 829 108 821 122 q 861 93 838 93 z "},"&":{"ha":714,"x_min":53,"x_max":661,"o":"m 586 176 q 610 149 597 157 q 643 140 624 140 l 660 140 l 660 0 l 593 0 q 523 17 547 0 q 469 79 499 33 q 382 8 431 29 q 269 -14 333 -14 q 113 47 172 -14 q 53 210 53 108 q 88 352 53 282 q 207 511 124 422 q 130 653 153 600 q 107 761 107 707 q 167 914 107 856 q 322 972 226 972 q 476 914 417 972 q 536 761 536 856 q 504 636 536 700 q 397 492 472 572 l 482 350 l 546 453 l 661 374 l 561 218 l 586 176 m 322 846 q 277 826 293 846 q 261 769 261 806 q 273 712 261 744 q 317 625 285 679 q 369 701 356 669 q 382 769 382 732 q 366 826 382 807 q 322 846 350 846 m 289 135 q 340 150 317 135 q 393 206 364 165 l 286 381 q 230 299 246 335 q 214 226 214 264 q 234 158 214 182 q 289 135 254 135 z "},"'":{"ha":238,"x_min":40,"x_max":197,"o":"m 40 958 l 197 958 l 197 553 l 40 553 l 40 958 z "},"(":{"ha":378,"x_min":53,"x_max":325,"o":"m 188 -117 q 87 158 121 13 q 53 456 53 304 q 87 753 53 607 q 188 1028 121 899 l 325 1028 q 240 747 269 893 q 211 456 211 600 q 240 165 211 311 q 325 -117 269 18 l 188 -117 z "},")":{"ha":378,"x_min":53,"x_max":325,"o":"m 53 -117 q 138 165 108 18 q 167 456 167 311 q 138 747 167 600 q 53 1028 108 893 l 190 1028 q 291 753 257 899 q 325 456 325 607 q 291 158 325 304 q 190 -117 257 13 l 53 -117 z "},"*":{"ha":467,"x_min":53,"x_max":414,"o":"m 188 682 l 94 628 l 54 699 l 150 754 l 53 811 l 94 885 l 188 831 l 188 958 l 279 958 l 279 828 l 372 882 l 413 811 l 315 756 l 414 697 l 372 625 l 279 679 l 279 544 l 188 544 l 188 682 z "},"+":{"ha":582,"x_min":44,"x_max":538,"o":"m 214 306 l 44 306 l 44 460 l 214 460 l 214 629 l 368 629 l 368 460 l 538 460 l 538 306 l 368 306 l 368 136 l 214 136 l 214 306 z "},",":{"ha":238,"x_min":40,"x_max":197,"o":"m 40 185 l 197 185 l 197 -96 l 40 -222 l 40 185 z "},"-":{"ha":488,"x_min":53,"x_max":435,"o":"m 53 557 l 435 557 l 435 404 l 53 404 l 53 557 z "},".":{"ha":243,"x_min":40,"x_max":203,"o":"m 40 183 l 203 183 l 203 0 l 40 0 l 40 183 z "},"/":{"ha":414,"x_min":53,"x_max":361,"o":"m 233 969 l 361 969 l 179 -14 l 53 -14 l 233 969 z "},":":{"ha":243,"x_min":40,"x_max":203,"o":"m 40 183 l 203 183 l 203 0 l 40 0 l 40 183 m 40 653 l 203 653 l 203 469 l 40 469 l 40 653 z "},";":{"ha":243,"x_min":40,"x_max":203,"o":"m 40 653 l 203 653 l 203 469 l 40 469 l 40 653 m 46 185 l 203 185 l 203 -96 l 46 -222 l 46 185 z "},"<":{"ha":582,"x_min":44,"x_max":519,"o":"m 44 322 l 44 444 l 519 636 l 519 499 l 217 383 l 519 268 l 519 131 l 44 322 z "},"=":{"ha":582,"x_min":44,"x_max":519,"o":"m 44 582 l 519 582 l 519 451 l 44 451 l 44 582 m 44 315 l 519 315 l 519 183 l 44 183 l 44 315 z "},">":{"ha":582,"x_min":44,"x_max":519,"o":"m 44 268 l 346 383 l 44 499 l 44 636 l 519 444 l 519 322 l 44 131 l 44 268 z "},"?":{"ha":522,"x_min":28,"x_max":486,"o":"m 179 335 q 188 432 179 396 q 235 528 197 468 l 283 606 q 313 667 306 640 q 321 738 321 694 q 256 825 321 825 q 201 794 213 825 q 189 690 189 764 l 28 690 q 83 901 28 832 q 257 971 138 971 q 424 910 363 971 q 486 742 486 850 q 474 646 486 688 q 424 549 461 604 l 369 469 q 338 408 344 435 q 332 336 332 382 l 332 275 l 179 275 l 179 335 m 179 176 l 332 176 l 332 0 l 179 0 l 179 176 z "},"@":{"ha":992,"x_min":53,"x_max":939,"o":"m 496 -186 q 259 -131 358 -186 q 106 30 160 -75 q 53 276 53 135 l 53 514 q 108 758 53 654 q 263 919 163 863 q 496 975 363 975 q 730 919 629 975 q 885 759 831 863 q 939 519 939 656 l 939 300 q 890 135 939 192 q 747 78 840 78 q 647 102 689 78 q 582 171 604 126 q 533 100 565 122 q 444 78 500 78 q 333 129 368 78 q 299 286 299 181 l 299 506 q 332 649 299 600 q 440 699 365 699 q 504 683 478 699 q 549 635 531 668 l 549 688 l 694 688 l 694 267 q 709 219 694 235 q 749 203 724 203 q 791 224 779 203 q 803 281 803 244 l 803 532 q 724 765 803 683 q 496 847 644 847 q 268 763 344 847 q 192 513 192 679 l 192 290 q 496 -58 192 -58 q 615 -43 564 -58 q 717 8 665 -28 l 788 -92 q 649 -163 721 -140 q 496 -186 578 -186 m 496 206 q 539 227 528 206 q 550 286 550 249 l 550 499 q 496 571 550 571 q 443 499 443 571 l 443 282 q 455 225 443 244 q 496 206 467 206 z "},"A":{"ha":674,"x_min":8,"x_max":665,"o":"m 449 186 l 225 186 l 186 0 l 8 0 l 254 958 l 421 958 l 665 0 l 488 0 l 449 186 m 418 339 l 338 728 l 257 339 l 418 339 z "},"B":{"ha":633,"x_min":58,"x_max":581,"o":"m 474 503 q 558 421 536 475 q 581 278 581 367 q 521 66 581 132 q 318 0 461 0 l 58 0 l 58 958 l 318 958 q 518 897 458 958 q 578 700 578 835 q 554 579 578 629 q 474 503 531 529 m 228 806 l 228 574 l 300 574 q 383 601 360 574 q 407 689 407 628 q 383 779 407 753 q 300 806 360 806 l 228 806 m 299 153 q 386 184 363 153 q 410 290 410 215 q 384 394 410 363 q 299 426 358 426 l 228 426 l 228 153 l 299 153 z "},"C":{"ha":650,"x_min":53,"x_max":597,"o":"m 321 -11 q 125 59 197 -11 q 53 264 53 129 l 53 696 q 129 902 53 832 q 331 972 206 972 q 524 903 450 972 q 597 692 597 833 l 597 663 l 426 663 l 426 690 q 399 787 426 756 q 326 818 372 818 q 248 781 272 818 q 224 668 224 743 l 224 283 q 326 143 224 143 q 399 175 372 143 q 426 269 426 207 l 426 294 l 596 294 l 596 268 q 519 59 596 129 q 321 -11 442 -11 z "},"D":{"ha":643,"x_min":58,"x_max":590,"o":"m 58 958 l 324 958 q 517 889 444 958 q 590 683 590 819 l 590 275 q 514 70 590 140 q 315 0 438 0 l 58 0 l 58 958 m 319 153 q 394 190 368 153 q 419 294 419 228 l 419 654 q 394 766 419 728 q 319 804 369 804 l 228 804 l 228 153 l 319 153 z "},"E":{"ha":521,"x_min":58,"x_max":486,"o":"m 228 804 l 228 564 l 450 564 l 450 411 l 228 411 l 228 153 l 486 153 l 486 0 l 58 0 l 58 958 l 486 958 l 486 804 l 228 804 z "},"F":{"ha":515,"x_min":58,"x_max":486,"o":"m 229 804 l 229 560 l 451 560 l 451 406 l 229 406 l 229 0 l 58 0 l 58 958 l 486 958 l 486 804 l 229 804 z "},"G":{"ha":650,"x_min":53,"x_max":597,"o":"m 321 -11 q 125 59 197 -11 q 53 264 53 129 l 53 696 q 129 902 53 832 q 331 972 206 972 q 524 904 450 972 q 597 703 597 836 l 597 674 l 426 674 l 426 703 q 399 788 426 758 q 326 818 371 818 q 248 781 272 818 q 224 668 224 743 l 224 283 q 326 143 224 143 q 401 177 376 143 q 426 275 426 211 l 426 376 l 325 376 l 325 511 l 597 511 l 597 264 q 520 60 597 131 q 321 -11 443 -11 z "},"H":{"ha":639,"x_min":58,"x_max":581,"o":"m 581 958 l 581 0 l 410 0 l 410 411 l 229 411 l 229 0 l 58 0 l 58 958 l 229 958 l 229 564 l 410 564 l 410 958 l 581 958 z "},"I":{"ha":297,"x_min":64,"x_max":233,"o":"m 64 958 l 233 958 l 233 0 l 64 0 l 64 958 z "},"J":{"ha":369,"x_min":24,"x_max":306,"o":"m 24 154 l 46 154 q 135 247 135 154 l 135 958 l 306 958 l 306 228 q 57 0 306 0 l 24 0 l 24 154 z "},"K":{"ha":639,"x_min":58,"x_max":633,"o":"m 306 371 l 228 217 l 228 0 l 58 0 l 58 958 l 228 958 l 228 507 l 432 958 l 603 958 l 403 564 l 633 0 l 451 0 l 306 371 z "},"L":{"ha":510,"x_min":58,"x_max":486,"o":"m 58 958 l 229 958 l 229 153 l 486 153 l 486 0 l 58 0 l 58 958 z "},"M":{"ha":793,"x_min":58,"x_max":735,"o":"m 735 958 l 735 0 l 564 0 l 564 561 l 442 186 l 350 186 l 229 557 l 229 0 l 58 0 l 58 958 l 229 958 l 396 453 l 564 958 l 735 958 z "},"N":{"ha":658,"x_min":58,"x_max":600,"o":"m 600 958 l 600 0 l 429 0 l 229 511 l 229 0 l 58 0 l 58 958 l 229 958 l 429 425 l 429 958 l 600 958 z "},"O":{"ha":650,"x_min":53,"x_max":597,"o":"m 321 -11 q 125 59 197 -11 q 53 264 53 129 l 53 696 q 129 902 53 832 q 331 972 206 972 q 524 902 451 972 q 597 696 597 832 l 597 264 q 520 60 597 131 q 321 -11 443 -11 m 326 143 q 401 180 375 143 q 426 283 426 217 l 426 668 q 401 780 426 742 q 326 818 376 818 q 248 781 272 818 q 224 668 224 743 l 224 283 q 326 143 224 143 z "},"P":{"ha":603,"x_min":58,"x_max":579,"o":"m 317 958 q 519 883 458 958 q 579 657 579 808 q 517 429 579 504 q 317 354 456 354 l 228 354 l 228 0 l 58 0 l 58 958 l 317 958 m 311 508 q 387 544 365 508 q 408 657 408 581 q 387 769 408 733 q 311 806 365 806 l 228 806 l 228 508 l 311 508 z "},"Q":{"ha":650,"x_min":53,"x_max":597,"o":"m 597 264 q 564 117 597 178 q 472 25 531 57 l 535 -149 l 390 -201 l 322 -11 l 321 -11 q 125 59 197 -11 q 53 264 53 129 l 53 696 q 129 902 53 832 q 331 972 206 972 q 524 902 451 972 q 597 696 597 832 l 597 264 m 224 283 q 326 143 224 143 q 401 180 375 143 q 426 283 426 217 l 426 668 q 401 780 426 742 q 326 818 376 818 q 248 781 272 818 q 224 668 224 743 l 224 283 z "},"R":{"ha":639,"x_min":58,"x_max":610,"o":"m 311 385 l 229 385 l 229 0 l 58 0 l 58 958 l 319 958 q 520 890 461 958 q 579 672 579 822 q 553 513 579 576 q 467 417 526 449 l 610 0 l 432 0 l 311 385 m 229 538 l 318 538 q 389 572 369 538 q 408 672 408 606 q 390 772 408 739 q 318 806 371 806 l 229 806 l 229 538 z "},"S":{"ha":592,"x_min":26,"x_max":554,"o":"m 288 -11 q 94 63 161 -11 q 26 274 28 136 l 188 274 q 216 169 190 203 q 292 136 242 136 q 365 167 342 136 q 388 264 388 197 q 362 352 388 319 q 275 413 336 385 l 210 442 q 76 544 117 483 q 35 708 35 606 q 105 901 35 829 q 294 974 175 974 q 477 902 413 974 q 546 696 542 831 l 389 696 q 366 794 388 761 q 294 826 344 826 q 201 717 201 826 q 224 637 201 667 q 301 583 247 607 l 364 556 q 509 444 464 511 q 554 267 554 378 q 485 61 554 133 q 288 -11 415 -11 z "},"T":{"ha":513,"x_min":6,"x_max":507,"o":"m 507 804 l 342 804 l 342 0 l 172 0 l 172 804 l 6 804 l 6 958 l 507 958 l 507 804 z "},"U":{"ha":639,"x_min":58,"x_max":581,"o":"m 319 -11 q 185 22 244 -11 q 92 114 126 54 q 58 251 58 174 l 58 958 l 229 958 l 229 256 q 251 170 229 197 q 319 143 274 143 q 410 256 410 143 l 410 958 l 581 958 l 581 251 q 547 114 581 174 q 454 22 514 54 q 319 -11 394 -11 z "},"V":{"ha":624,"x_min":8,"x_max":615,"o":"m 8 958 l 196 958 l 311 242 l 428 958 l 615 958 l 400 0 l 224 0 l 8 958 z "},"W":{"ha":936,"x_min":8,"x_max":928,"o":"m 928 958 l 757 0 l 572 0 l 468 589 l 363 0 l 179 0 l 8 958 l 182 958 l 275 242 l 365 958 l 574 958 l 664 242 l 757 958 l 928 958 z "},"X":{"ha":576,"x_min":8,"x_max":568,"o":"m 204 497 l 22 958 l 190 958 l 289 658 l 386 958 l 554 958 l 372 497 l 568 0 l 400 0 l 289 335 l 176 0 l 8 0 l 204 497 z "},"Y":{"ha":576,"x_min":8,"x_max":568,"o":"m 374 374 l 374 0 l 203 0 l 203 376 l 8 958 l 196 958 l 288 592 l 379 958 l 568 958 l 374 374 z "},"Z":{"ha":499,"x_min":29,"x_max":472,"o":"m 472 154 l 472 0 l 29 0 l 29 154 l 299 804 l 43 804 l 43 958 l 467 958 l 467 804 l 199 154 l 472 154 z "},"[":{"ha":393,"x_min":58,"x_max":340,"o":"m 58 1028 l 340 1028 l 340 874 l 217 874 l 217 38 l 340 38 l 340 -117 l 58 -117 l 58 1028 z "},"\\":{"ha":414,"x_min":53,"x_max":361,"o":"m 53 969 l 179 969 l 361 -14 l 233 -14 l 53 969 z "},"]":{"ha":393,"x_min":53,"x_max":335,"o":"m 53 38 l 175 38 l 175 874 l 53 874 l 53 1028 l 335 1028 l 335 -117 l 53 -117 l 53 38 z "},"^":{"ha":582,"x_min":42,"x_max":528,"o":"m 221 969 l 349 969 l 528 388 l 401 388 l 285 778 l 168 388 l 42 388 l 221 969 z "},"_":{"ha":590,"x_min":0,"x_max":590,"o":"m 0 -67 l 590 -67 l 590 -162 l 0 -162 l 0 -67 z "},"`":{"ha":694,"x_min":193,"x_max":501,"o":"m 193 1008 l 364 1008 l 501 819 l 364 819 l 193 1008 z "},"a":{"ha":563,"x_min":42,"x_max":506,"o":"m 281 744 q 447 681 388 744 q 506 511 506 618 l 506 0 l 356 0 l 356 61 q 299 6 326 24 q 226 -11 271 -11 q 88 49 135 -11 q 42 215 42 108 q 104 374 42 318 q 283 431 167 431 l 344 431 l 344 524 q 327 583 344 563 q 276 603 310 603 q 228 583 246 603 q 210 531 210 564 l 210 519 l 61 519 l 61 525 q 122 689 61 633 q 281 744 183 744 m 274 129 q 324 153 304 129 q 344 219 344 178 l 344 318 l 303 318 q 228 296 254 318 q 203 222 203 274 q 221 153 203 176 q 274 129 239 129 z "},"b":{"ha":569,"x_min":57,"x_max":517,"o":"m 339 -11 q 270 4 300 -11 q 213 51 240 19 l 213 0 l 57 0 l 57 958 l 218 958 l 218 675 q 269 726 238 708 q 342 744 300 744 q 469 688 422 744 q 517 507 517 631 l 517 226 q 467 46 517 103 q 339 -11 418 -11 m 286 133 q 338 161 321 133 q 356 253 356 189 l 356 481 q 338 572 356 543 q 286 600 321 600 q 233 572 251 600 q 215 481 215 543 l 215 253 q 286 133 215 133 z "},"c":{"ha":565,"x_min":53,"x_max":513,"o":"m 286 -11 q 113 51 172 -11 q 53 254 53 114 l 53 479 q 113 682 53 619 q 286 744 172 744 q 454 685 396 744 q 513 506 513 625 l 513 478 l 357 478 l 357 503 q 338 576 357 551 q 286 600 319 600 q 232 572 250 600 q 214 481 214 543 l 214 253 q 232 162 214 190 q 285 133 250 133 q 338 158 319 133 q 357 232 357 182 l 357 256 l 513 256 l 513 232 q 454 49 513 110 q 286 -11 396 -11 z "},"d":{"ha":569,"x_min":53,"x_max":513,"o":"m 232 -11 q 102 46 151 -11 q 53 226 53 103 l 53 507 q 101 688 53 631 q 229 744 149 744 q 301 726 269 744 q 353 675 333 708 l 353 958 l 513 958 l 513 0 l 358 0 l 358 51 q 232 -11 306 -11 m 285 133 q 356 253 356 133 l 356 481 q 338 572 356 543 q 283 600 319 600 q 231 572 249 600 q 214 481 214 543 l 214 253 q 231 161 214 189 q 285 133 249 133 z "},"e":{"ha":571,"x_min":53,"x_max":518,"o":"m 214 310 l 214 243 q 286 131 214 131 q 357 224 357 131 l 357 231 l 513 231 l 513 222 q 454 48 513 107 q 286 -11 396 -11 q 114 56 175 -11 q 53 276 53 122 l 53 456 q 110 675 53 606 q 282 744 168 744 q 456 674 394 744 q 518 456 518 603 l 518 310 l 214 310 m 285 600 q 232 572 250 600 q 214 481 214 543 l 214 426 l 357 426 l 357 481 q 339 572 357 543 q 285 600 321 600 z "},"f":{"ha":399,"x_min":38,"x_max":369,"o":"m 349 844 q 288 826 306 844 q 271 764 271 808 l 271 733 l 369 733 l 369 621 l 271 621 l 271 0 l 111 0 l 111 621 l 38 621 l 38 733 l 111 733 l 111 775 q 300 958 111 958 l 369 958 l 369 844 l 349 844 z "},"g":{"ha":569,"x_min":53,"x_max":513,"o":"m 285 -233 q 126 -181 183 -233 q 65 -25 68 -128 l 215 -25 q 233 -76 215 -58 q 286 -94 251 -94 q 340 -72 321 -94 q 358 -7 358 -50 l 358 119 q 232 57 306 57 q 102 114 151 57 q 53 294 53 171 l 53 507 q 101 688 53 631 q 229 744 149 744 q 301 726 269 744 q 353 675 333 708 l 353 733 l 513 733 l 513 8 q 452 -168 513 -103 q 285 -233 392 -233 m 285 201 q 356 321 356 201 l 356 481 q 338 572 356 543 q 283 600 319 600 q 231 572 249 600 q 214 481 214 543 l 214 321 q 231 229 214 257 q 285 201 249 201 z "},"h":{"ha":569,"x_min":57,"x_max":513,"o":"m 57 958 l 218 958 l 218 686 q 333 744 269 744 q 469 688 426 744 q 513 524 513 631 l 513 0 l 351 0 l 351 522 q 333 580 351 560 q 285 600 314 600 q 236 580 254 600 q 218 522 218 560 l 218 0 l 57 0 l 57 958 z "},"i":{"ha":286,"x_min":63,"x_max":224,"o":"m 63 733 l 224 733 l 224 0 l 63 0 l 63 733 m 63 958 l 224 958 l 224 824 l 63 824 l 63 958 z "},"j":{"ha":286,"x_min":-33,"x_max":224,"o":"m 63 958 l 224 958 l 224 824 l 63 824 l 63 958 m -33 -75 l -26 -75 q 63 18 63 -75 l 63 733 l 224 733 l 224 8 q -25 -219 224 -219 l -33 -219 l -33 -75 z "},"k":{"ha":582,"x_min":57,"x_max":568,"o":"m 274 292 l 218 207 l 218 0 l 57 0 l 57 958 l 218 958 l 218 435 l 393 733 l 561 733 l 374 446 l 568 0 l 390 0 l 274 292 z "},"l":{"ha":333,"x_min":57,"x_max":314,"o":"m 306 0 q 57 228 57 0 l 57 958 l 218 958 l 218 238 q 307 144 218 144 l 314 144 l 314 0 l 306 0 z "},"m":{"ha":864,"x_min":57,"x_max":807,"o":"m 57 733 l 211 733 l 211 679 q 335 744 261 744 q 417 724 379 744 q 478 668 454 704 q 544 723 506 701 q 622 744 582 744 q 765 689 722 744 q 807 524 807 633 l 807 0 l 646 0 l 646 522 q 627 580 646 560 q 579 600 608 600 q 531 580 550 600 q 513 522 513 560 l 513 0 l 351 0 l 351 522 q 333 580 351 560 q 285 600 314 600 q 236 580 254 600 q 218 522 218 560 l 218 0 l 57 0 l 57 733 z "},"n":{"ha":569,"x_min":57,"x_max":513,"o":"m 57 733 l 211 733 l 211 679 q 333 744 263 744 q 513 524 513 744 l 513 0 l 351 0 l 351 522 q 333 580 351 560 q 285 600 314 600 q 236 580 254 600 q 218 522 218 560 l 218 0 l 57 0 l 57 733 z "},"o":{"ha":571,"x_min":53,"x_max":518,"o":"m 286 -11 q 113 51 172 -11 q 53 254 53 114 l 53 479 q 113 682 53 619 q 286 744 172 744 q 459 682 400 744 q 518 479 518 619 l 518 254 q 459 51 518 114 q 286 -11 400 -11 m 285 133 q 339 162 321 133 q 357 253 357 190 l 357 481 q 339 572 357 543 q 285 600 321 600 q 232 572 250 600 q 214 481 214 543 l 214 253 q 232 162 214 190 q 285 133 250 133 z "},"p":{"ha":569,"x_min":57,"x_max":517,"o":"m 57 733 l 213 733 l 213 675 q 342 744 260 744 q 469 688 422 744 q 517 507 517 631 l 517 226 q 467 46 517 103 q 339 -11 418 -11 q 218 44 265 -11 l 218 -219 l 57 -219 l 57 733 m 286 133 q 338 161 321 133 q 356 253 356 189 l 356 481 q 338 572 356 543 q 286 600 321 600 q 233 572 251 600 q 215 481 215 543 l 215 253 q 286 133 215 133 z "},"q":{"ha":569,"x_min":53,"x_max":513,"o":"m 353 44 q 232 -11 306 -11 q 102 46 151 -11 q 53 226 53 103 l 53 507 q 101 688 53 631 q 229 744 149 744 q 358 675 308 744 l 358 733 l 513 733 l 513 -219 l 353 -219 l 353 44 m 285 133 q 356 253 356 133 l 356 481 q 338 572 356 543 q 283 600 319 600 q 231 572 249 600 q 214 481 214 543 l 214 253 q 231 161 214 189 q 285 133 249 133 z "},"r":{"ha":425,"x_min":57,"x_max":406,"o":"m 57 733 l 211 733 l 211 665 q 274 728 239 710 q 356 747 310 747 q 406 742 383 747 l 406 572 q 332 586 368 586 q 249 553 281 586 q 218 461 218 521 l 218 0 l 57 0 l 57 733 z "},"s":{"ha":544,"x_min":42,"x_max":507,"o":"m 274 -11 q 104 48 167 -11 q 42 211 42 107 l 42 219 l 197 219 l 197 211 q 218 147 197 169 q 276 124 239 124 q 331 144 313 124 q 350 203 350 164 q 333 253 350 232 q 278 292 315 275 l 194 328 q 78 413 110 364 q 46 535 46 461 q 108 685 46 625 q 272 744 171 744 q 436 685 374 744 q 499 529 499 625 l 499 515 l 343 515 l 343 524 q 324 589 343 567 q 271 611 304 611 q 220 593 239 611 q 201 542 201 575 q 215 493 201 513 q 268 457 229 474 l 358 418 q 472 334 438 383 q 507 206 507 285 q 444 49 507 110 q 274 -11 381 -11 z "},"t":{"ha":419,"x_min":26,"x_max":386,"o":"m 269 621 l 269 238 q 363 144 269 144 l 368 144 l 368 0 l 363 0 q 173 55 238 0 q 108 228 108 110 l 108 621 l 26 621 l 26 733 l 108 733 l 108 863 l 269 928 l 269 733 l 386 733 l 386 621 l 269 621 z "},"u":{"ha":569,"x_min":57,"x_max":513,"o":"m 285 -11 q 105 53 153 -11 q 57 246 57 118 l 57 733 l 218 733 l 218 279 q 222 194 218 222 q 239 150 225 167 q 285 133 253 133 q 331 148 317 133 q 348 190 344 163 q 351 279 351 218 l 351 733 l 513 733 l 513 246 q 493 103 513 158 q 424 19 474 49 q 285 -11 375 -11 z "},"v":{"ha":568,"x_min":15,"x_max":553,"o":"m 15 733 l 193 733 l 285 257 l 375 733 l 553 733 l 369 0 l 199 0 l 15 733 z "},"w":{"ha":846,"x_min":15,"x_max":831,"o":"m 15 733 l 193 733 l 267 257 l 356 733 l 489 733 l 578 257 l 651 733 l 831 733 l 663 0 l 506 0 l 422 449 l 338 0 l 182 0 l 15 733 z "},"x":{"ha":528,"x_min":15,"x_max":513,"o":"m 349 0 l 258 206 l 181 0 l 15 0 l 181 381 l 25 733 l 189 733 l 271 549 l 339 733 l 504 733 l 343 383 l 513 0 l 349 0 z "},"y":{"ha":568,"x_min":15,"x_max":553,"o":"m 553 733 l 354 -53 q 302 -157 338 -121 q 213 -206 267 -193 q 74 -219 158 -219 l 68 -219 l 68 -78 l 126 -78 q 219 -40 199 -78 l 15 733 l 193 733 l 292 288 l 383 733 l 553 733 z "},"z":{"ha":533,"x_min":53,"x_max":481,"o":"m 481 597 l 218 136 l 481 136 l 481 0 l 53 0 l 53 136 l 319 597 l 53 597 l 53 733 l 481 733 l 481 597 z "},"{":{"ha":443,"x_min":53,"x_max":390,"o":"m 313 -117 q 188 -72 231 -117 q 144 56 144 -28 l 144 288 q 125 365 144 342 q 53 388 106 388 l 53 531 q 125 553 106 531 q 144 632 144 576 l 144 856 q 188 983 144 939 q 313 1028 231 1028 l 390 1028 l 390 885 l 363 885 q 319 868 333 885 q 304 821 304 851 l 304 644 q 288 517 304 556 q 219 460 272 479 q 288 400 272 439 q 304 274 304 361 l 304 90 q 319 43 304 60 q 363 26 333 26 l 390 26 l 390 -117 l 313 -117 z "},"|":{"ha":367,"x_min":106,"x_max":261,"o":"m 106 1028 l 261 1028 l 261 -117 l 106 -117 l 106 1028 z "},"}":{"ha":443,"x_min":53,"x_max":390,"o":"m 53 26 l 81 26 q 124 43 110 26 q 139 90 139 60 l 139 274 q 156 400 139 361 q 224 460 172 439 q 155 517 171 479 q 139 644 139 556 l 139 821 q 124 868 139 851 q 81 885 110 885 l 53 885 l 53 1028 l 132 1028 q 256 983 214 1028 q 299 856 299 939 l 299 632 q 318 553 299 576 q 390 531 338 531 l 390 388 q 318 365 338 388 q 299 288 299 342 l 299 56 q 256 -72 299 -28 q 132 -117 214 -117 l 53 -117 l 53 26 z "},"~":{"ha":582,"x_min":35,"x_max":536,"o":"m 35 331 q 108 435 69 403 q 196 467 146 467 q 247 457 224 467 q 300 429 271 447 q 333 412 317 419 q 363 404 350 404 q 399 418 385 404 q 438 475 414 432 l 536 417 q 465 313 503 344 q 375 281 426 281 q 324 290 349 281 q 271 318 299 300 q 253 328 267 321 q 229 340 240 336 q 210 343 218 343 q 173 329 189 343 q 135 274 157 315 l 35 331 z "}," ":{"ha":243,"x_min":0,"x_max":0,"o":""},"¡":{"ha":289,"x_min":57,"x_max":232,"o":"m 64 733 l 225 733 l 225 551 l 64 551 l 64 733 m 90 426 l 199 426 l 232 -219 l 57 -219 l 90 426 z "},"¢":{"ha":615,"x_min":53,"x_max":513,"o":"m 357 478 l 357 503 q 338 576 357 551 q 286 600 319 600 q 232 572 250 600 q 214 481 214 543 l 214 253 q 232 162 214 190 q 285 133 250 133 q 338 158 319 133 q 357 232 357 182 l 357 256 l 513 256 l 513 232 q 472 72 513 131 q 356 -4 432 13 l 356 -139 l 274 -139 l 274 -11 q 109 54 165 -8 q 53 254 53 117 l 53 479 q 109 679 53 617 q 274 744 165 742 l 274 882 l 356 882 l 356 738 q 513 506 513 703 l 513 478 l 357 478 z "},"£":{"ha":583,"x_min":26,"x_max":557,"o":"m 282 279 q 271 206 282 236 q 235 154 260 176 l 546 154 l 546 0 l 50 0 l 50 157 q 99 198 88 171 q 111 282 111 225 l 111 401 l 26 401 l 26 556 l 111 556 l 111 749 q 167 914 111 856 q 335 972 222 972 q 502 913 447 972 q 557 743 557 853 l 394 743 q 382 815 394 794 q 340 836 369 836 q 296 818 310 836 q 282 761 282 800 l 282 556 l 449 556 l 449 401 l 282 401 l 282 279 z "},"¤":{"ha":793,"x_min":57,"x_max":736,"o":"m 540 186 q 396 149 474 149 q 251 186 315 149 l 160 96 l 57 200 l 147 292 q 113 432 113 354 q 149 572 113 507 l 57 665 l 161 769 l 251 678 q 396 715 319 715 q 539 678 472 715 l 632 769 l 735 665 l 643 574 q 681 432 681 507 q 644 292 681 357 l 736 199 l 632 94 l 540 186 m 396 292 q 493 332 454 292 q 532 432 532 372 q 493 532 532 492 q 396 572 454 572 q 299 532 338 572 q 261 432 261 492 q 299 332 261 372 q 396 292 338 292 z "},"¥":{"ha":568,"x_min":7,"x_max":561,"o":"m 199 153 l 56 153 l 56 271 l 199 271 l 199 344 l 56 344 l 56 463 l 182 463 l 7 958 l 188 958 l 288 588 l 383 958 l 561 958 l 386 463 l 513 463 l 513 344 l 369 344 l 369 271 l 513 271 l 513 153 l 369 153 l 369 0 l 199 0 l 199 153 z "},"¦":{"ha":367,"x_min":106,"x_max":261,"o":"m 106 1028 l 261 1028 l 261 539 l 106 539 l 106 1028 m 106 372 l 261 372 l 261 -117 l 106 -117 l 106 372 z "},"§":{"ha":568,"x_min":58,"x_max":510,"o":"m 282 -233 q 122 -176 168 -233 q 76 6 76 -118 l 222 6 q 233 -81 222 -56 q 281 -106 243 -106 q 328 -83 315 -106 q 340 -21 340 -61 q 329 49 340 24 q 293 89 318 74 q 217 124 268 104 q 93 215 128 156 q 58 379 58 274 q 83 510 58 460 q 167 586 107 561 q 96 655 115 607 q 76 772 76 703 q 130 933 76 879 q 285 986 183 986 q 443 929 399 986 q 488 750 488 872 l 342 750 q 333 834 342 810 q 286 858 324 858 q 242 836 253 858 q 232 772 232 814 q 243 707 232 731 q 278 667 254 683 q 351 635 303 651 q 476 544 442 603 q 510 379 510 486 q 485 247 510 297 q 401 174 461 197 q 474 103 454 150 q 494 -15 494 57 q 282 -233 494 -233 m 283 247 q 343 279 329 247 q 357 379 357 311 q 343 480 357 449 q 283 511 329 511 q 224 479 238 511 q 211 379 211 447 q 225 279 211 311 q 283 247 239 247 m 251 978 z "},"¨":{"ha":694,"x_min":174,"x_max":519,"o":"m 174 979 l 303 979 l 303 821 l 174 821 l 174 979 m 390 979 l 519 979 l 519 821 l 390 821 l 390 979 z "},"©":{"ha":976,"x_min":53,"x_max":924,"o":"m 489 -8 q 167 121 281 -8 q 53 476 53 250 q 167 833 53 706 q 489 961 281 961 q 810 832 697 961 q 924 476 924 703 q 810 121 924 250 q 489 -8 696 -8 m 489 86 q 735 188 653 86 q 818 476 818 290 q 735 765 818 664 q 489 867 651 867 q 242 765 325 867 q 158 476 158 663 q 242 188 158 289 q 489 86 325 86 m 490 207 q 366 252 408 207 q 324 397 324 297 l 324 558 q 366 703 324 658 q 490 747 408 747 q 653 578 653 747 l 653 558 l 542 558 l 542 575 q 528 628 542 610 q 490 646 514 646 q 439 560 439 646 l 439 396 q 451 330 439 350 q 490 310 464 310 q 542 382 542 310 l 542 399 l 653 399 l 653 382 q 611 251 653 294 q 490 207 569 207 z "},"ª":{"ha":426,"x_min":51,"x_max":360,"o":"m 210 1036 q 320 997 281 1036 q 360 894 360 958 l 360 597 l 260 597 l 260 632 q 222 601 240 611 q 175 590 204 590 q 83 626 114 590 q 51 726 51 661 q 93 822 51 789 q 213 856 135 856 l 254 856 l 254 900 q 208 940 254 940 q 175 931 188 940 q 163 904 163 921 l 163 900 l 64 900 l 64 903 q 104 1003 64 969 q 210 1036 144 1036 m 206 686 q 240 698 226 686 q 254 729 254 710 l 254 779 l 225 779 q 158 731 158 779 q 171 699 158 711 q 206 686 183 686 m 194 1176 z "},"«":{"ha":614,"x_min":19,"x_max":557,"o":"m 19 367 l 289 642 l 289 489 l 169 367 l 289 244 l 289 92 l 19 367 m 288 367 l 557 642 l 557 489 l 436 367 l 557 244 l 557 92 l 288 367 z "},"¬":{"ha":582,"x_min":49,"x_max":532,"o":"m 371 356 l 49 356 l 49 500 l 532 500 l 532 215 l 371 215 l 371 356 z "},"­":{"ha":488,"x_min":53,"x_max":435,"o":"m 53 557 l 435 557 l 435 404 l 53 404 l 53 557 z "},"®":{"ha":594,"x_min":58,"x_max":536,"o":"m 296 438 q 120 508 182 438 q 58 701 58 578 q 122 894 58 825 q 296 964 185 964 q 473 892 410 964 q 536 701 536 821 q 473 508 536 579 q 296 438 410 438 m 296 490 q 431 545 385 490 q 476 701 476 600 q 430 857 476 803 q 296 911 383 911 q 161 856 207 911 q 115 701 115 801 q 161 544 115 599 q 296 490 207 490 m 218 850 l 300 850 q 386 763 386 850 q 353 686 386 711 l 396 556 l 332 556 l 296 671 l 279 671 l 279 556 l 218 556 l 218 850 m 293 725 q 318 733 311 725 q 325 761 325 740 q 318 788 325 782 q 293 794 311 794 l 279 794 l 279 725 l 293 725 z "},"¯":{"ha":694,"x_min":182,"x_max":511,"o":"m 182 972 l 511 972 l 511 828 l 182 828 l 182 972 z "},"°":{"ha":451,"x_min":53,"x_max":399,"o":"m 225 629 q 102 678 151 629 q 53 801 53 728 q 102 924 53 875 q 225 974 151 974 q 349 924 300 974 q 399 801 399 875 q 349 678 399 728 q 225 629 300 629 m 225 718 q 283 742 260 718 q 306 801 306 765 q 283 861 306 838 q 225 885 260 885 q 168 861 190 885 q 146 801 146 838 q 168 742 146 765 q 225 718 190 718 z "},"±":{"ha":582,"x_min":44,"x_max":538,"o":"m 214 400 l 44 400 l 44 554 l 214 554 l 214 724 l 368 724 l 368 554 l 538 554 l 538 400 l 368 400 l 368 231 l 214 231 l 214 400 m 44 167 l 538 167 l 538 13 l 44 13 l 44 167 z "},"²":{"ha":393,"x_min":43,"x_max":349,"o":"m 43 692 l 207 935 q 230 974 224 958 q 236 1014 236 989 l 236 1044 q 226 1071 236 1060 q 196 1082 217 1082 q 158 1049 158 1082 l 158 1006 l 47 1006 l 47 1060 q 89 1151 47 1118 q 199 1185 131 1185 q 308 1151 268 1185 q 347 1057 347 1117 l 347 1014 q 337 947 347 974 q 303 886 326 921 l 171 700 l 349 700 l 349 597 l 43 597 l 43 692 z "},"³":{"ha":386,"x_min":39,"x_max":343,"o":"m 190 589 q 78 623 117 589 q 39 719 39 657 l 39 763 l 150 763 l 150 729 q 189 692 150 692 q 221 701 213 692 q 229 735 229 711 l 229 789 q 220 831 229 818 q 182 843 211 843 l 160 843 l 160 946 l 185 946 q 220 957 211 946 q 229 993 229 968 l 229 1038 q 220 1070 229 1060 q 189 1081 211 1081 q 150 1043 150 1081 l 150 1008 l 39 1008 l 39 1050 q 79 1149 39 1114 q 190 1185 119 1185 q 303 1149 264 1185 q 343 1050 343 1114 l 343 1003 q 330 940 343 963 q 279 899 317 917 q 331 860 318 882 q 343 796 343 838 l 343 732 q 303 626 343 663 q 190 589 263 589 z "},"´":{"ha":694,"x_min":193,"x_max":501,"o":"m 331 1008 l 501 1008 l 331 819 l 193 819 l 331 1008 z "},"µ":{"ha":569,"x_min":57,"x_max":513,"o":"m 57 733 l 218 733 l 218 211 q 237 153 218 174 q 285 133 256 133 q 333 153 314 133 q 351 211 351 174 l 351 733 l 513 733 l 513 0 l 358 0 l 358 54 q 319 9 346 25 q 265 -7 293 -7 q 208 6 232 -7 l 208 -219 l 57 -219 l 57 733 z "},"¶":{"ha":768,"x_min":58,"x_max":681,"o":"m 289 363 q 169 408 221 367 q 88 515 117 449 q 58 661 58 581 q 92 811 58 743 q 190 919 126 879 q 336 958 253 958 l 681 958 l 681 -219 l 528 -219 l 528 828 l 443 828 l 443 -219 l 289 -219 l 289 363 z "},"·":{"ha":243,"x_min":40,"x_max":203,"o":"m 40 481 l 203 481 l 203 297 l 40 297 l 40 481 z "},"¸":{"ha":694,"x_min":214,"x_max":438,"o":"m 315 14 l 438 14 l 356 -219 l 214 -219 l 315 14 z "},"¹":{"ha":299,"x_min":33,"x_max":238,"o":"m 122 1043 l 33 983 l 33 1117 l 122 1176 l 238 1176 l 238 597 l 122 597 l 122 1043 z "},"º":{"ha":431,"x_min":60,"x_max":371,"o":"m 217 590 q 99 627 139 590 q 60 749 60 664 l 60 878 q 99 999 60 963 q 217 1036 139 1036 q 331 999 292 1036 q 371 878 371 963 l 371 749 q 331 627 371 664 q 217 590 292 590 m 215 688 q 251 703 239 688 q 263 753 263 718 l 263 874 q 251 924 263 908 q 215 939 239 939 q 179 924 192 939 q 167 874 167 908 l 167 753 q 215 688 167 688 m 197 1176 z "},"»":{"ha":614,"x_min":57,"x_max":594,"o":"m 57 244 l 176 367 l 57 489 l 57 642 l 326 367 l 57 92 l 57 244 m 325 244 l 444 367 l 325 489 l 325 642 l 594 367 l 325 92 l 325 244 z "},"¼":{"ha":967,"x_min":33,"x_max":939,"o":"m 122 825 l 33 765 l 33 899 l 122 958 l 238 958 l 238 379 l 122 379 l 122 825 m 939 89 l 899 89 l 899 0 l 785 0 l 785 89 l 593 89 l 593 192 l 719 579 l 833 579 l 708 192 l 785 192 l 785 304 l 899 304 l 899 192 l 939 192 l 939 89 m 557 969 l 671 969 l 310 0 l 196 0 l 557 969 z "},"½":{"ha":961,"x_min":33,"x_max":917,"o":"m 122 825 l 33 765 l 33 899 l 122 958 l 238 958 l 238 379 l 122 379 l 122 825 m 611 94 l 775 338 q 798 376 792 361 q 804 417 804 392 l 804 447 q 794 474 804 463 q 764 485 785 485 q 726 451 726 485 l 726 408 l 615 408 l 615 463 q 657 554 615 521 q 767 588 699 588 q 876 553 836 588 q 915 460 915 519 l 915 417 q 905 350 915 376 q 871 289 894 324 l 739 103 l 917 103 l 917 0 l 611 0 l 611 94 m 557 969 l 671 969 l 310 0 l 196 0 l 557 969 z "},"¾":{"ha":1054,"x_min":39,"x_max":1026,"o":"m 190 371 q 78 405 117 371 q 39 501 39 439 l 39 544 l 150 544 l 150 511 q 189 474 150 474 q 221 483 213 474 q 229 517 229 493 l 229 571 q 220 613 229 600 q 182 625 211 625 l 160 625 l 160 728 l 185 728 q 220 739 211 728 q 229 775 229 750 l 229 819 q 220 852 229 842 q 189 863 211 863 q 150 825 150 863 l 150 790 l 39 790 l 39 832 q 79 931 39 896 q 190 967 119 967 q 303 931 264 967 q 343 832 343 896 l 343 785 q 330 722 343 744 q 279 681 317 699 q 331 642 318 664 q 343 578 343 619 l 343 514 q 303 408 343 444 q 190 371 263 371 m 1026 89 l 986 89 l 986 0 l 872 0 l 872 89 l 681 89 l 681 192 l 807 579 l 921 579 l 796 192 l 872 192 l 872 304 l 986 304 l 986 192 l 1026 192 l 1026 89 m 644 969 l 758 969 l 397 0 l 283 0 l 644 969 z "},"¿":{"ha":522,"x_min":36,"x_max":494,"o":"m 190 733 l 342 733 l 342 557 l 190 557 l 190 733 m 265 -233 q 98 -172 160 -233 q 36 -3 36 -111 q 48 94 36 53 q 97 189 60 135 l 153 268 q 184 330 178 303 q 190 403 190 357 l 190 458 l 342 458 l 342 403 q 333 303 342 339 q 288 210 325 268 l 239 133 q 208 71 217 99 q 200 0 200 43 q 267 -87 200 -87 q 322 -57 310 -87 q 333 49 333 -26 l 494 49 q 440 -164 494 -94 q 265 -233 385 -233 z "},"À":{"ha":674,"x_min":8,"x_max":665,"o":"m 449 186 l 225 186 l 186 0 l 8 0 l 254 958 l 421 958 l 665 0 l 488 0 l 449 186 m 418 339 l 338 728 l 257 339 l 418 339 m 142 1233 l 313 1233 l 450 1044 l 313 1044 l 142 1233 z "},"Á":{"ha":674,"x_min":8,"x_max":665,"o":"m 449 186 l 225 186 l 186 0 l 8 0 l 254 958 l 421 958 l 665 0 l 488 0 l 449 186 m 418 339 l 338 728 l 257 339 l 418 339 m 363 1233 l 533 1233 l 363 1044 l 225 1044 l 363 1233 z "},"Â":{"ha":674,"x_min":8,"x_max":665,"o":"m 449 186 l 225 186 l 186 0 l 8 0 l 254 958 l 421 958 l 665 0 l 488 0 l 449 186 m 418 339 l 338 728 l 257 339 l 418 339 m 278 1242 l 393 1242 l 536 1036 l 415 1036 l 338 1147 l 258 1036 l 138 1036 l 278 1242 z "},"Ã":{"ha":674,"x_min":8,"x_max":665,"o":"m 449 186 l 225 186 l 186 0 l 8 0 l 254 958 l 421 958 l 665 0 l 488 0 l 449 186 m 418 339 l 338 728 l 257 339 l 418 339 m 181 1172 q 227 1212 208 1201 q 272 1222 246 1222 q 311 1215 294 1222 q 346 1196 328 1208 q 379 1178 367 1183 q 408 1174 392 1174 q 446 1184 431 1174 q 493 1228 461 1194 l 493 1100 q 449 1060 467 1071 q 403 1049 431 1049 q 364 1056 379 1049 q 328 1075 349 1063 q 297 1092 308 1086 q 267 1097 285 1097 q 227 1086 244 1097 q 181 1043 210 1075 l 181 1172 z "},"Ä":{"ha":674,"x_min":8,"x_max":665,"o":"m 449 186 l 225 186 l 186 0 l 8 0 l 254 958 l 421 958 l 665 0 l 488 0 l 449 186 m 418 339 l 338 728 l 257 339 l 418 339 m 164 1204 l 293 1204 l 293 1046 l 164 1046 l 164 1204 m 381 1204 l 510 1204 l 510 1046 l 381 1046 l 381 1204 z "},"Å":{"ha":674,"x_min":8,"x_max":665,"o":"m 449 186 l 225 186 l 186 0 l 8 0 l 254 958 q 219 1003 232 976 q 207 1060 207 1029 q 244 1154 207 1117 q 338 1192 282 1192 q 431 1154 393 1192 q 468 1060 468 1117 q 456 1003 468 1029 q 421 958 443 976 l 665 0 l 488 0 l 449 186 m 338 1124 q 292 1106 310 1124 q 275 1060 275 1088 q 293 1015 275 1033 q 338 997 311 997 q 381 1015 364 997 q 399 1060 399 1033 q 381 1106 399 1088 q 338 1124 364 1124 m 418 339 l 338 728 l 257 339 l 418 339 m 331 958 m 374 929 z "},"Æ":{"ha":943,"x_min":8,"x_max":908,"o":"m 651 804 l 651 564 l 874 564 l 874 411 l 651 411 l 651 153 l 908 153 l 908 0 l 481 0 l 481 185 l 254 185 l 186 0 l 8 0 l 369 958 l 908 958 l 908 804 l 651 804 m 481 338 l 481 806 l 310 338 l 481 338 z "},"Ç":{"ha":650,"x_min":53,"x_max":597,"o":"m 426 663 l 426 690 q 399 787 426 756 q 326 818 372 818 q 248 781 272 818 q 224 668 224 743 l 224 283 q 326 143 224 143 q 399 175 372 143 q 426 269 426 207 l 426 294 l 596 294 l 596 268 q 544 88 596 156 q 406 -1 493 21 l 329 -219 l 188 -219 l 279 -8 q 113 72 174 3 q 53 264 53 140 l 53 696 q 129 902 53 832 q 331 972 206 972 q 524 903 450 972 q 597 692 597 833 l 597 663 l 426 663 z "},"È":{"ha":521,"x_min":58,"x_max":486,"o":"m 228 804 l 228 564 l 450 564 l 450 411 l 228 411 l 228 153 l 486 153 l 486 0 l 58 0 l 58 958 l 486 958 l 486 804 l 228 804 m 82 1233 l 253 1233 l 390 1044 l 253 1044 l 82 1233 z "},"É":{"ha":521,"x_min":58,"x_max":486,"o":"m 228 804 l 228 564 l 450 564 l 450 411 l 228 411 l 228 153 l 486 153 l 486 0 l 58 0 l 58 958 l 486 958 l 486 804 l 228 804 m 303 1233 l 474 1233 l 303 1044 l 165 1044 l 303 1233 z "},"Ê":{"ha":521,"x_min":58,"x_max":486,"o":"m 228 804 l 228 564 l 450 564 l 450 411 l 228 411 l 228 153 l 486 153 l 486 0 l 58 0 l 58 958 l 486 958 l 486 804 l 228 804 m 218 1242 l 333 1242 l 476 1036 l 356 1036 l 278 1147 l 199 1036 l 78 1036 l 218 1242 z "},"Ë":{"ha":521,"x_min":58,"x_max":486,"o":"m 228 804 l 228 564 l 450 564 l 450 411 l 228 411 l 228 153 l 486 153 l 486 0 l 58 0 l 58 958 l 486 958 l 486 804 l 228 804 m 104 1204 l 233 1204 l 233 1046 l 104 1046 l 104 1204 m 321 1204 l 450 1204 l 450 1046 l 321 1046 l 321 1204 z "},"Ì":{"ha":297,"x_min":-47,"x_max":261,"o":"m 64 958 l 233 958 l 233 0 l 64 0 l 64 958 m -47 1233 l 124 1233 l 261 1044 l 124 1044 l -47 1233 z "},"Í":{"ha":297,"x_min":36,"x_max":344,"o":"m 64 958 l 233 958 l 233 0 l 64 0 l 64 958 m 174 1233 l 344 1233 l 174 1044 l 36 1044 l 174 1233 z "},"Î":{"ha":297,"x_min":-51,"x_max":347,"o":"m 64 958 l 233 958 l 233 0 l 64 0 l 64 958 m 89 1242 l 204 1242 l 347 1036 l 226 1036 l 149 1147 l 69 1036 l -51 1036 l 89 1242 z "},"Ï":{"ha":297,"x_min":-25,"x_max":321,"o":"m 64 958 l 233 958 l 233 0 l 64 0 l 64 958 m -25 1204 l 104 1204 l 104 1046 l -25 1046 l -25 1204 m 192 1204 l 321 1204 l 321 1046 l 192 1046 l 192 1204 z "},"Ð":{"ha":671,"x_min":28,"x_max":618,"o":"m 351 958 q 545 889 472 958 q 618 683 618 819 l 618 275 q 542 70 618 140 q 343 0 465 0 l 86 0 l 86 417 l 28 417 l 28 569 l 86 569 l 86 958 l 351 958 m 447 654 q 422 766 447 728 q 347 804 397 804 l 256 804 l 256 569 l 375 569 l 375 417 l 256 417 l 256 153 l 347 153 q 422 190 396 153 q 447 294 447 228 l 447 654 z "},"Ñ":{"ha":658,"x_min":58,"x_max":600,"o":"m 600 958 l 600 0 l 429 0 l 229 511 l 229 0 l 58 0 l 58 958 l 229 958 l 429 425 l 429 958 l 600 958 m 172 1172 q 219 1212 200 1201 q 264 1222 238 1222 q 303 1215 286 1222 q 338 1196 319 1208 q 371 1178 358 1183 q 400 1174 383 1174 q 438 1184 422 1174 q 485 1228 453 1194 l 485 1100 q 440 1060 458 1071 q 394 1049 422 1049 q 356 1056 371 1049 q 319 1075 340 1063 q 288 1092 300 1086 q 258 1097 276 1097 q 219 1086 236 1097 q 172 1043 201 1075 l 172 1172 z "},"Ò":{"ha":650,"x_min":53,"x_max":597,"o":"m 321 -11 q 125 59 197 -11 q 53 264 53 129 l 53 696 q 129 902 53 832 q 331 972 206 972 q 524 902 451 972 q 597 696 597 832 l 597 264 q 520 60 597 131 q 321 -11 443 -11 m 326 143 q 401 180 375 143 q 426 283 426 217 l 426 668 q 401 780 426 742 q 326 818 376 818 q 248 781 272 818 q 224 668 224 743 l 224 283 q 326 143 224 143 m 129 1233 l 300 1233 l 438 1044 l 300 1044 l 129 1233 z "},"Ó":{"ha":650,"x_min":53,"x_max":597,"o":"m 321 -11 q 125 59 197 -11 q 53 264 53 129 l 53 696 q 129 902 53 832 q 331 972 206 972 q 524 902 451 972 q 597 696 597 832 l 597 264 q 520 60 597 131 q 321 -11 443 -11 m 326 143 q 401 180 375 143 q 426 283 426 217 l 426 668 q 401 780 426 742 q 326 818 376 818 q 248 781 272 818 q 224 668 224 743 l 224 283 q 326 143 224 143 m 350 1233 l 521 1233 l 350 1044 l 213 1044 l 350 1233 z "},"Ô":{"ha":650,"x_min":53,"x_max":597,"o":"m 321 -11 q 125 59 197 -11 q 53 264 53 129 l 53 696 q 129 902 53 832 q 331 972 206 972 q 524 902 451 972 q 597 696 597 832 l 597 264 q 520 60 597 131 q 321 -11 443 -11 m 326 143 q 401 180 375 143 q 426 283 426 217 l 426 668 q 401 780 426 742 q 326 818 376 818 q 248 781 272 818 q 224 668 224 743 l 224 283 q 326 143 224 143 m 265 1242 l 381 1242 l 524 1036 l 403 1036 l 325 1147 l 246 1036 l 125 1036 l 265 1242 z "},"Õ":{"ha":650,"x_min":53,"x_max":597,"o":"m 321 -11 q 125 59 197 -11 q 53 264 53 129 l 53 696 q 129 902 53 832 q 331 972 206 972 q 524 902 451 972 q 597 696 597 832 l 597 264 q 520 60 597 131 q 321 -11 443 -11 m 326 143 q 401 180 375 143 q 426 283 426 217 l 426 668 q 401 780 426 742 q 326 818 376 818 q 248 781 272 818 q 224 668 224 743 l 224 283 q 326 143 224 143 m 168 1172 q 215 1212 196 1201 q 260 1222 233 1222 q 299 1215 282 1222 q 333 1196 315 1208 q 367 1178 354 1183 q 396 1174 379 1174 q 433 1184 418 1174 q 481 1228 449 1194 l 481 1100 q 436 1060 454 1071 q 390 1049 418 1049 q 351 1056 367 1049 q 315 1075 336 1063 q 284 1092 296 1086 q 254 1097 272 1097 q 215 1086 232 1097 q 168 1043 197 1075 l 168 1172 z "},"Ö":{"ha":650,"x_min":53,"x_max":597,"o":"m 321 -11 q 125 59 197 -11 q 53 264 53 129 l 53 696 q 129 902 53 832 q 331 972 206 972 q 524 902 451 972 q 597 696 597 832 l 597 264 q 520 60 597 131 q 321 -11 443 -11 m 326 143 q 401 180 375 143 q 426 283 426 217 l 426 668 q 401 780 426 742 q 326 818 376 818 q 248 781 272 818 q 224 668 224 743 l 224 283 q 326 143 224 143 m 151 1204 l 281 1204 l 281 1046 l 151 1046 l 151 1204 m 368 1204 l 497 1204 l 497 1046 l 368 1046 l 368 1204 z "},"×":{"ha":582,"x_min":58,"x_max":524,"o":"m 58 251 l 190 383 l 58 514 l 160 615 l 292 485 l 422 615 l 524 514 l 393 383 l 524 251 l 422 150 l 292 282 l 160 150 l 58 251 z "},"Ø":{"ha":650,"x_min":53,"x_max":597,"o":"m 544 879 q 597 696 597 808 l 597 264 q 520 60 597 131 q 321 -11 443 -11 q 161 31 226 -11 l 135 -28 l 53 -28 l 103 85 q 53 264 53 153 l 53 696 q 129 902 53 832 q 331 972 206 972 q 486 932 424 972 l 515 997 l 597 997 l 544 879 m 224 351 l 410 764 q 326 818 388 818 q 248 781 272 818 q 224 668 224 743 l 224 351 m 426 618 l 238 200 q 326 143 261 143 q 401 180 375 143 q 426 283 426 217 l 426 618 z "},"Ù":{"ha":639,"x_min":58,"x_max":581,"o":"m 319 -11 q 185 22 244 -11 q 92 114 126 54 q 58 251 58 174 l 58 958 l 229 958 l 229 256 q 251 170 229 197 q 319 143 274 143 q 410 256 410 143 l 410 958 l 581 958 l 581 251 q 547 114 581 174 q 454 22 514 54 q 319 -11 394 -11 m 124 1233 l 294 1233 l 432 1044 l 294 1044 l 124 1233 z "},"Ú":{"ha":639,"x_min":58,"x_max":581,"o":"m 319 -11 q 185 22 244 -11 q 92 114 126 54 q 58 251 58 174 l 58 958 l 229 958 l 229 256 q 251 170 229 197 q 319 143 274 143 q 410 256 410 143 l 410 958 l 581 958 l 581 251 q 547 114 581 174 q 454 22 514 54 q 319 -11 394 -11 m 344 1233 l 515 1233 l 344 1044 l 207 1044 l 344 1233 z "},"Û":{"ha":639,"x_min":58,"x_max":581,"o":"m 319 -11 q 185 22 244 -11 q 92 114 126 54 q 58 251 58 174 l 58 958 l 229 958 l 229 256 q 251 170 229 197 q 319 143 274 143 q 410 256 410 143 l 410 958 l 581 958 l 581 251 q 547 114 581 174 q 454 22 514 54 q 319 -11 394 -11 m 260 1242 l 375 1242 l 518 1036 l 397 1036 l 319 1147 l 240 1036 l 119 1036 l 260 1242 z "},"Ü":{"ha":639,"x_min":58,"x_max":581,"o":"m 319 -11 q 185 22 244 -11 q 92 114 126 54 q 58 251 58 174 l 58 958 l 229 958 l 229 256 q 251 170 229 197 q 319 143 274 143 q 410 256 410 143 l 410 958 l 581 958 l 581 251 q 547 114 581 174 q 454 22 514 54 q 319 -11 394 -11 m 146 1204 l 275 1204 l 275 1046 l 146 1046 l 146 1204 m 363 1204 l 492 1204 l 492 1046 l 363 1046 l 363 1204 z "},"Ý":{"ha":576,"x_min":8,"x_max":568,"o":"m 374 374 l 374 0 l 203 0 l 203 376 l 8 958 l 196 958 l 288 592 l 379 958 l 568 958 l 374 374 m 313 1233 l 483 1233 l 313 1044 l 175 1044 l 313 1233 z "},"Þ":{"ha":603,"x_min":58,"x_max":579,"o":"m 317 804 q 519 729 458 804 q 579 503 579 654 q 517 275 579 350 q 317 200 456 200 l 228 200 l 228 0 l 58 0 l 58 958 l 228 958 l 228 804 l 317 804 m 311 353 q 387 390 365 353 q 408 503 408 426 q 387 614 408 578 q 311 650 365 650 l 228 650 l 228 353 l 311 353 z "},"ß":{"ha":583,"x_min":57,"x_max":531,"o":"m 294 129 l 317 129 q 353 147 342 129 q 367 199 364 164 q 369 313 369 235 q 367 417 369 383 q 353 468 364 450 q 317 486 342 486 l 292 486 l 292 621 l 314 621 q 354 646 346 621 q 363 731 363 671 q 345 803 363 779 q 292 828 328 828 q 237 806 256 828 q 218 742 218 783 l 218 0 l 57 0 l 57 721 q 292 972 57 972 q 463 912 401 972 q 524 746 524 851 q 508 634 524 671 q 449 565 493 597 q 502 516 485 543 q 525 444 519 489 q 531 313 531 399 q 518 121 531 185 q 463 25 506 57 q 331 -7 421 -7 l 294 -7 l 294 129 z "},"à":{"ha":563,"x_min":42,"x_max":506,"o":"m 281 744 q 447 681 388 744 q 506 511 506 618 l 506 0 l 356 0 l 356 61 q 299 6 326 24 q 226 -11 271 -11 q 88 49 135 -11 q 42 215 42 108 q 104 374 42 318 q 283 431 167 431 l 344 431 l 344 524 q 327 583 344 563 q 276 603 310 603 q 228 583 246 603 q 210 531 210 564 l 210 519 l 61 519 l 61 525 q 122 689 61 633 q 281 744 183 744 m 274 129 q 324 153 304 129 q 344 219 344 178 l 344 318 l 303 318 q 228 296 254 318 q 203 222 203 274 q 221 153 203 176 q 274 129 239 129 m 85 1008 l 256 1008 l 393 819 l 256 819 l 85 1008 z "},"á":{"ha":563,"x_min":42,"x_max":506,"o":"m 281 744 q 447 681 388 744 q 506 511 506 618 l 506 0 l 356 0 l 356 61 q 299 6 326 24 q 226 -11 271 -11 q 88 49 135 -11 q 42 215 42 108 q 104 374 42 318 q 283 431 167 431 l 344 431 l 344 524 q 327 583 344 563 q 276 603 310 603 q 228 583 246 603 q 210 531 210 564 l 210 519 l 61 519 l 61 525 q 122 689 61 633 q 281 744 183 744 m 274 129 q 324 153 304 129 q 344 219 344 178 l 344 318 l 303 318 q 228 296 254 318 q 203 222 203 274 q 221 153 203 176 q 274 129 239 129 m 306 1008 l 476 1008 l 306 819 l 168 819 l 306 1008 z "},"â":{"ha":563,"x_min":42,"x_max":506,"o":"m 281 744 q 447 681 388 744 q 506 511 506 618 l 506 0 l 356 0 l 356 61 q 299 6 326 24 q 226 -11 271 -11 q 88 49 135 -11 q 42 215 42 108 q 104 374 42 318 q 283 431 167 431 l 344 431 l 344 524 q 327 583 344 563 q 276 603 310 603 q 228 583 246 603 q 210 531 210 564 l 210 519 l 61 519 l 61 525 q 122 689 61 633 q 281 744 183 744 m 274 129 q 324 153 304 129 q 344 219 344 178 l 344 318 l 303 318 q 228 296 254 318 q 203 222 203 274 q 221 153 203 176 q 274 129 239 129 m 221 1017 l 336 1017 l 479 811 l 358 811 l 281 922 l 201 811 l 81 811 l 221 1017 z "},"ã":{"ha":563,"x_min":42,"x_max":506,"o":"m 281 744 q 447 681 388 744 q 506 511 506 618 l 506 0 l 356 0 l 356 61 q 299 6 326 24 q 226 -11 271 -11 q 88 49 135 -11 q 42 215 42 108 q 104 374 42 318 q 283 431 167 431 l 344 431 l 344 524 q 327 583 344 563 q 276 603 310 603 q 228 583 246 603 q 210 531 210 564 l 210 519 l 61 519 l 61 525 q 122 689 61 633 q 281 744 183 744 m 274 129 q 324 153 304 129 q 344 219 344 178 l 344 318 l 303 318 q 228 296 254 318 q 203 222 203 274 q 221 153 203 176 q 274 129 239 129 m 124 947 q 170 987 151 976 q 215 997 189 997 q 254 990 238 997 q 289 971 271 983 q 322 953 310 958 q 351 949 335 949 q 389 959 374 949 q 436 1003 404 969 l 436 875 q 392 835 410 846 q 346 824 374 824 q 307 831 322 824 q 271 850 292 838 q 240 867 251 861 q 210 872 228 872 q 170 861 188 872 q 124 818 153 850 l 124 947 z "},"ä":{"ha":563,"x_min":42,"x_max":506,"o":"m 281 744 q 447 681 388 744 q 506 511 506 618 l 506 0 l 356 0 l 356 61 q 299 6 326 24 q 226 -11 271 -11 q 88 49 135 -11 q 42 215 42 108 q 104 374 42 318 q 283 431 167 431 l 344 431 l 344 524 q 327 583 344 563 q 276 603 310 603 q 228 583 246 603 q 210 531 210 564 l 210 519 l 61 519 l 61 525 q 122 689 61 633 q 281 744 183 744 m 274 129 q 324 153 304 129 q 344 219 344 178 l 344 318 l 303 318 q 228 296 254 318 q 203 222 203 274 q 221 153 203 176 q 274 129 239 129 m 107 979 l 236 979 l 236 821 l 107 821 l 107 979 m 324 979 l 453 979 l 453 821 l 324 821 l 324 979 z "},"å":{"ha":563,"x_min":42,"x_max":506,"o":"m 281 744 q 447 681 388 744 q 506 511 506 618 l 506 0 l 356 0 l 356 61 q 299 6 326 24 q 226 -11 271 -11 q 88 49 135 -11 q 42 215 42 108 q 104 374 42 318 q 283 431 167 431 l 344 431 l 344 524 q 327 583 344 563 q 276 603 310 603 q 228 583 246 603 q 210 531 210 564 l 210 519 l 61 519 l 61 525 q 122 689 61 633 q 281 744 183 744 m 274 129 q 324 153 304 129 q 344 219 344 178 l 344 318 l 303 318 q 228 296 254 318 q 203 222 203 274 q 221 153 203 176 q 274 129 239 129 m 281 746 q 188 783 225 746 q 150 876 150 821 q 188 971 150 933 q 281 1008 225 1008 q 374 971 336 1008 q 411 876 411 933 q 374 783 411 821 q 281 746 336 746 m 281 814 q 324 832 307 814 q 342 876 342 850 q 324 922 342 904 q 281 940 307 940 q 235 922 253 940 q 218 876 218 904 q 235 832 218 850 q 281 814 253 814 z "},"æ":{"ha":863,"x_min":42,"x_max":810,"o":"m 506 243 q 578 131 506 131 q 649 224 649 131 l 649 231 l 806 231 l 806 222 q 747 48 806 107 q 579 -11 688 -11 q 418 43 474 -11 q 261 -11 353 -11 q 102 50 163 -11 q 42 215 42 111 q 104 374 42 318 q 283 431 167 431 l 344 431 l 344 524 q 327 583 344 563 q 276 603 310 603 q 228 583 246 603 q 210 531 210 564 l 210 519 l 61 519 l 61 525 q 122 689 61 633 q 281 744 183 744 q 426 700 368 744 q 574 744 481 744 q 748 674 686 744 q 810 456 810 604 l 810 310 l 506 310 l 506 243 m 578 600 q 524 572 542 600 q 506 481 506 543 l 506 426 l 649 426 l 649 481 q 631 572 649 543 q 578 600 613 600 m 344 318 l 303 318 q 228 296 254 318 q 203 222 203 274 q 221 153 203 176 q 274 129 239 129 q 324 153 304 129 q 344 219 344 178 l 344 318 z "},"ç":{"ha":565,"x_min":53,"x_max":513,"o":"m 357 478 l 357 503 q 338 576 357 551 q 286 600 319 600 q 232 572 250 600 q 214 481 214 543 l 214 253 q 232 162 214 190 q 285 133 250 133 q 338 158 319 133 q 357 232 357 182 l 357 256 l 513 256 l 513 232 q 372 0 513 42 l 294 -219 l 153 -219 l 244 -8 q 101 64 150 1 q 53 254 53 126 l 53 479 q 113 682 53 619 q 286 744 172 744 q 454 685 396 744 q 513 506 513 625 l 513 478 l 357 478 z "},"è":{"ha":571,"x_min":53,"x_max":518,"o":"m 214 310 l 214 243 q 286 131 214 131 q 357 224 357 131 l 357 231 l 513 231 l 513 222 q 454 48 513 107 q 286 -11 396 -11 q 114 56 175 -11 q 53 276 53 122 l 53 456 q 110 675 53 606 q 282 744 168 744 q 456 674 394 744 q 518 456 518 603 l 518 310 l 214 310 m 285 600 q 232 572 250 600 q 214 481 214 543 l 214 426 l 357 426 l 357 481 q 339 572 357 543 q 285 600 321 600 m 89 1008 l 260 1008 l 397 819 l 260 819 l 89 1008 z "},"é":{"ha":571,"x_min":53,"x_max":518,"o":"m 214 310 l 214 243 q 286 131 214 131 q 357 224 357 131 l 357 231 l 513 231 l 513 222 q 454 48 513 107 q 286 -11 396 -11 q 114 56 175 -11 q 53 276 53 122 l 53 456 q 110 675 53 606 q 282 744 168 744 q 456 674 394 744 q 518 456 518 603 l 518 310 l 214 310 m 285 600 q 232 572 250 600 q 214 481 214 543 l 214 426 l 357 426 l 357 481 q 339 572 357 543 q 285 600 321 600 m 310 1008 l 481 1008 l 310 819 l 172 819 l 310 1008 z "},"ê":{"ha":571,"x_min":53,"x_max":518,"o":"m 214 310 l 214 243 q 286 131 214 131 q 357 224 357 131 l 357 231 l 513 231 l 513 222 q 454 48 513 107 q 286 -11 396 -11 q 114 56 175 -11 q 53 276 53 122 l 53 456 q 110 675 53 606 q 282 744 168 744 q 456 674 394 744 q 518 456 518 603 l 518 310 l 214 310 m 285 600 q 232 572 250 600 q 214 481 214 543 l 214 426 l 357 426 l 357 481 q 339 572 357 543 q 285 600 321 600 m 225 1017 l 340 1017 l 483 811 l 363 811 l 285 922 l 206 811 l 85 811 l 225 1017 z "},"ë":{"ha":571,"x_min":53,"x_max":518,"o":"m 214 310 l 214 243 q 286 131 214 131 q 357 224 357 131 l 357 231 l 513 231 l 513 222 q 454 48 513 107 q 286 -11 396 -11 q 114 56 175 -11 q 53 276 53 122 l 53 456 q 110 675 53 606 q 282 744 168 744 q 456 674 394 744 q 518 456 518 603 l 518 310 l 214 310 m 285 600 q 232 572 250 600 q 214 481 214 543 l 214 426 l 357 426 l 357 481 q 339 572 357 543 q 285 600 321 600 m 111 979 l 240 979 l 240 821 l 111 821 l 111 979 m 328 979 l 457 979 l 457 821 l 328 821 l 328 979 z "},"ì":{"ha":286,"x_min":-53,"x_max":256,"o":"m 63 733 l 224 733 l 224 0 l 63 0 l 63 733 m -53 1006 l 118 1006 l 256 817 l 118 817 l -53 1006 z "},"í":{"ha":286,"x_min":31,"x_max":339,"o":"m 63 733 l 224 733 l 224 0 l 63 0 l 63 733 m 168 1006 l 339 1006 l 168 817 l 31 817 l 168 1006 z "},"î":{"ha":286,"x_min":-57,"x_max":342,"o":"m 63 733 l 224 733 l 224 0 l 63 0 l 63 733 m 83 1014 l 199 1014 l 342 808 l 221 808 l 143 919 l 64 808 l -57 808 l 83 1014 z "},"ï":{"ha":286,"x_min":-31,"x_max":315,"o":"m 63 733 l 224 733 l 224 0 l 63 0 l 63 733 m -31 976 l 99 976 l 99 818 l -31 818 l -31 976 m 186 976 l 315 976 l 315 818 l 186 818 l 186 976 z "},"ð":{"ha":554,"x_min":53,"x_max":501,"o":"m 411 715 q 482 546 463 614 q 501 388 501 478 l 501 246 q 444 53 501 119 q 275 -14 386 -14 q 109 52 165 -14 q 53 246 53 118 l 53 396 q 99 579 53 517 q 233 642 144 642 q 304 628 269 642 l 243 747 l 126 710 l 92 813 l 192 844 l 128 969 l 282 969 l 324 886 l 426 919 l 460 815 l 374 788 l 411 715 m 340 411 q 324 470 340 450 q 278 490 308 490 q 231 470 247 490 q 214 411 214 450 l 214 229 q 231 165 214 188 q 278 142 247 142 q 324 165 308 142 q 340 229 340 188 l 340 411 z "},"ñ":{"ha":569,"x_min":57,"x_max":513,"o":"m 57 733 l 211 733 l 211 679 q 333 744 263 744 q 513 524 513 744 l 513 0 l 351 0 l 351 522 q 333 580 351 560 q 285 600 314 600 q 236 580 254 600 q 218 522 218 560 l 218 0 l 57 0 l 57 733 m 128 947 q 174 987 156 976 q 219 997 193 997 q 258 990 242 997 q 293 971 275 983 q 326 953 314 958 q 356 949 339 949 q 393 959 378 949 q 440 1003 408 969 l 440 875 q 396 835 414 846 q 350 824 378 824 q 311 831 326 824 q 275 850 296 838 q 244 867 256 861 q 214 872 232 872 q 174 861 192 872 q 128 818 157 850 l 128 947 z "},"ò":{"ha":571,"x_min":53,"x_max":518,"o":"m 286 -11 q 113 51 172 -11 q 53 254 53 114 l 53 479 q 113 682 53 619 q 286 744 172 744 q 459 682 400 744 q 518 479 518 619 l 518 254 q 459 51 518 114 q 286 -11 400 -11 m 285 133 q 339 162 321 133 q 357 253 357 190 l 357 481 q 339 572 357 543 q 285 600 321 600 q 232 572 250 600 q 214 481 214 543 l 214 253 q 232 162 214 190 q 285 133 250 133 m 89 1008 l 260 1008 l 397 819 l 260 819 l 89 1008 z "},"ó":{"ha":571,"x_min":53,"x_max":518,"o":"m 286 -11 q 113 51 172 -11 q 53 254 53 114 l 53 479 q 113 682 53 619 q 286 744 172 744 q 459 682 400 744 q 518 479 518 619 l 518 254 q 459 51 518 114 q 286 -11 400 -11 m 285 133 q 339 162 321 133 q 357 253 357 190 l 357 481 q 339 572 357 543 q 285 600 321 600 q 232 572 250 600 q 214 481 214 543 l 214 253 q 232 162 214 190 q 285 133 250 133 m 310 1008 l 481 1008 l 310 819 l 172 819 l 310 1008 z "},"ô":{"ha":571,"x_min":53,"x_max":518,"o":"m 286 -11 q 113 51 172 -11 q 53 254 53 114 l 53 479 q 113 682 53 619 q 286 744 172 744 q 459 682 400 744 q 518 479 518 619 l 518 254 q 459 51 518 114 q 286 -11 400 -11 m 285 133 q 339 162 321 133 q 357 253 357 190 l 357 481 q 339 572 357 543 q 285 600 321 600 q 232 572 250 600 q 214 481 214 543 l 214 253 q 232 162 214 190 q 285 133 250 133 m 225 1017 l 340 1017 l 483 811 l 363 811 l 285 922 l 206 811 l 85 811 l 225 1017 z "},"õ":{"ha":571,"x_min":53,"x_max":518,"o":"m 286 -11 q 113 51 172 -11 q 53 254 53 114 l 53 479 q 113 682 53 619 q 286 744 172 744 q 459 682 400 744 q 518 479 518 619 l 518 254 q 459 51 518 114 q 286 -11 400 -11 m 285 133 q 339 162 321 133 q 357 253 357 190 l 357 481 q 339 572 357 543 q 285 600 321 600 q 232 572 250 600 q 214 481 214 543 l 214 253 q 232 162 214 190 q 285 133 250 133 m 128 947 q 174 987 156 976 q 219 997 193 997 q 258 990 242 997 q 293 971 275 983 q 326 953 314 958 q 356 949 339 949 q 393 959 378 949 q 440 1003 408 969 l 440 875 q 396 835 414 846 q 350 824 378 824 q 311 831 326 824 q 275 850 296 838 q 244 867 256 861 q 214 872 232 872 q 174 861 192 872 q 128 818 157 850 l 128 947 z "},"ö":{"ha":571,"x_min":53,"x_max":518,"o":"m 286 -11 q 113 51 172 -11 q 53 254 53 114 l 53 479 q 113 682 53 619 q 286 744 172 744 q 459 682 400 744 q 518 479 518 619 l 518 254 q 459 51 518 114 q 286 -11 400 -11 m 285 133 q 339 162 321 133 q 357 253 357 190 l 357 481 q 339 572 357 543 q 285 600 321 600 q 232 572 250 600 q 214 481 214 543 l 214 253 q 232 162 214 190 q 285 133 250 133 m 111 979 l 240 979 l 240 821 l 111 821 l 111 979 m 328 979 l 457 979 l 457 821 l 328 821 l 328 979 z "},"÷":{"ha":582,"x_min":44,"x_max":538,"o":"m 290 522 q 228 549 254 522 q 203 611 203 575 q 228 673 203 647 q 290 699 254 699 q 353 673 326 699 q 379 611 379 647 q 353 549 379 575 q 290 522 326 522 m 44 460 l 538 460 l 538 306 l 44 306 l 44 460 m 290 72 q 228 98 254 72 q 203 160 203 124 q 228 222 203 196 q 290 249 254 249 q 353 222 326 249 q 379 160 379 196 q 353 98 379 124 q 290 72 326 72 z "},"ø":{"ha":571,"x_min":53,"x_max":518,"o":"m 469 669 q 518 479 518 606 l 518 254 q 459 51 518 114 q 286 -11 400 -11 q 156 17 207 -11 l 128 -40 l 53 -40 l 103 63 q 53 254 53 131 l 53 479 q 113 682 53 619 q 286 744 172 744 q 417 715 367 744 l 443 771 l 518 771 l 469 669 m 214 294 l 343 564 q 285 600 326 600 q 232 572 250 600 q 214 481 214 543 l 214 294 m 357 436 l 228 168 q 285 133 246 133 q 339 162 321 133 q 357 253 357 190 l 357 436 z "},"ù":{"ha":569,"x_min":57,"x_max":513,"o":"m 285 -11 q 105 53 153 -11 q 57 246 57 118 l 57 733 l 218 733 l 218 279 q 222 194 218 222 q 239 150 225 167 q 285 133 253 133 q 331 148 317 133 q 348 190 344 163 q 351 279 351 218 l 351 733 l 513 733 l 513 246 q 493 103 513 158 q 424 19 474 49 q 285 -11 375 -11 m 89 1008 l 260 1008 l 397 819 l 260 819 l 89 1008 z "},"ú":{"ha":569,"x_min":57,"x_max":513,"o":"m 285 -11 q 105 53 153 -11 q 57 246 57 118 l 57 733 l 218 733 l 218 279 q 222 194 218 222 q 239 150 225 167 q 285 133 253 133 q 331 148 317 133 q 348 190 344 163 q 351 279 351 218 l 351 733 l 513 733 l 513 246 q 493 103 513 158 q 424 19 474 49 q 285 -11 375 -11 m 310 1008 l 481 1008 l 310 819 l 172 819 l 310 1008 z "},"û":{"ha":569,"x_min":57,"x_max":513,"o":"m 285 -11 q 105 53 153 -11 q 57 246 57 118 l 57 733 l 218 733 l 218 279 q 222 194 218 222 q 239 150 225 167 q 285 133 253 133 q 331 148 317 133 q 348 190 344 163 q 351 279 351 218 l 351 733 l 513 733 l 513 246 q 493 103 513 158 q 424 19 474 49 q 285 -11 375 -11 m 225 1017 l 340 1017 l 483 811 l 363 811 l 285 922 l 206 811 l 85 811 l 225 1017 z "},"ü":{"ha":569,"x_min":57,"x_max":513,"o":"m 285 -11 q 105 53 153 -11 q 57 246 57 118 l 57 733 l 218 733 l 218 279 q 222 194 218 222 q 239 150 225 167 q 285 133 253 133 q 331 148 317 133 q 348 190 344 163 q 351 279 351 218 l 351 733 l 513 733 l 513 246 q 493 103 513 158 q 424 19 474 49 q 285 -11 375 -11 m 111 979 l 240 979 l 240 821 l 111 821 l 111 979 m 328 979 l 457 979 l 457 821 l 328 821 l 328 979 z "},"ý":{"ha":568,"x_min":15,"x_max":553,"o":"m 553 733 l 354 -53 q 302 -157 338 -121 q 213 -206 267 -193 q 74 -219 158 -219 l 68 -219 l 68 -78 l 126 -78 q 219 -40 199 -78 l 15 733 l 193 733 l 292 288 l 383 733 l 553 733 m 310 1008 l 481 1008 l 310 819 l 172 819 l 310 1008 z "},"þ":{"ha":569,"x_min":57,"x_max":517,"o":"m 57 958 l 218 958 l 218 675 q 269 726 238 708 q 342 744 300 744 q 469 688 422 744 q 517 507 517 631 l 517 226 q 467 46 517 103 q 339 -11 418 -11 q 270 4 300 -11 q 213 51 240 19 l 213 -219 l 57 -219 l 57 958 m 286 133 q 338 161 321 133 q 356 253 356 189 l 356 481 q 338 572 356 543 q 286 600 321 600 q 233 572 251 600 q 215 481 215 543 l 215 253 q 286 133 215 133 z "},"ÿ":{"ha":568,"x_min":15,"x_max":553,"o":"m 553 733 l 354 -53 q 302 -157 338 -121 q 213 -206 267 -193 q 74 -219 158 -219 l 68 -219 l 68 -78 l 126 -78 q 219 -40 199 -78 l 15 733 l 193 733 l 292 288 l 383 733 l 553 733 m 111 979 l 240 979 l 240 821 l 111 821 l 111 979 m 328 979 l 457 979 l 457 821 l 328 821 l 328 979 z "},"ı":{"ha":286,"x_min":63,"x_max":224,"o":"m 63 733 l 224 733 l 224 0 l 63 0 l 63 733 z "},"Œ":{"ha":890,"x_min":53,"x_max":856,"o":"m 597 804 l 597 564 l 819 564 l 819 411 l 597 411 l 597 153 l 856 153 l 856 0 l 450 0 l 450 39 q 299 -11 385 -11 q 115 58 178 -11 q 53 264 53 126 l 53 696 q 119 903 53 835 q 307 972 185 972 q 450 929 389 972 l 450 958 l 856 958 l 856 804 l 597 804 m 426 668 q 401 780 426 742 q 326 818 376 818 q 248 781 272 818 q 224 668 224 743 l 224 283 q 326 143 224 143 q 401 180 375 143 q 426 283 426 217 l 426 668 z "},"œ":{"ha":875,"x_min":53,"x_max":822,"o":"m 518 243 q 590 131 518 131 q 661 224 661 131 l 661 231 l 817 231 l 817 222 q 758 48 817 107 q 590 -11 700 -11 q 440 33 494 -11 q 286 -11 383 -11 q 113 51 172 -11 q 53 254 53 114 l 53 479 q 113 682 53 619 q 286 744 172 744 q 440 700 383 744 q 586 744 493 744 q 760 674 699 744 q 822 456 822 603 l 822 310 l 518 310 l 518 243 m 357 481 q 339 572 357 543 q 285 600 321 600 q 232 572 250 600 q 214 481 214 543 l 214 253 q 232 162 214 190 q 285 133 250 133 q 339 162 321 133 q 357 253 357 190 l 357 481 m 518 426 l 661 426 l 661 481 q 643 572 661 543 q 589 600 625 600 q 536 572 554 600 q 518 481 518 543 l 518 426 z "},"Š":{"ha":592,"x_min":26,"x_max":554,"o":"m 288 -11 q 94 63 161 -11 q 26 274 28 136 l 188 274 q 216 169 190 203 q 292 136 242 136 q 365 167 342 136 q 388 264 388 197 q 362 352 388 319 q 275 413 336 385 l 210 442 q 76 544 117 483 q 35 708 35 606 q 105 901 35 829 q 294 974 175 974 q 477 902 413 974 q 546 696 542 831 l 389 696 q 366 794 388 761 q 294 826 344 826 q 201 717 201 826 q 224 637 201 667 q 301 583 247 607 l 364 556 q 509 444 464 511 q 554 267 554 378 q 485 61 554 133 q 288 -11 415 -11 m 92 1238 l 213 1238 l 292 1128 l 369 1238 l 490 1238 l 347 1032 l 232 1032 l 92 1238 z "},"š":{"ha":544,"x_min":42,"x_max":507,"o":"m 274 -11 q 104 48 167 -11 q 42 211 42 107 l 42 219 l 197 219 l 197 211 q 218 147 197 169 q 276 124 239 124 q 331 144 313 124 q 350 203 350 164 q 333 253 350 232 q 278 292 315 275 l 194 328 q 78 413 110 364 q 46 535 46 461 q 108 685 46 625 q 272 744 171 744 q 436 685 374 744 q 499 529 499 625 l 499 515 l 343 515 l 343 524 q 324 589 343 567 q 271 611 304 611 q 220 593 239 611 q 201 542 201 575 q 215 493 201 513 q 268 457 229 474 l 358 418 q 472 334 438 383 q 507 206 507 285 q 444 49 507 110 q 274 -11 381 -11 m 72 1013 l 193 1013 l 272 903 l 350 1013 l 471 1013 l 328 807 l 213 807 l 72 1013 z "},"Ÿ":{"ha":576,"x_min":8,"x_max":568,"o":"m 374 374 l 374 0 l 203 0 l 203 376 l 8 958 l 196 958 l 288 592 l 379 958 l 568 958 l 374 374 m 114 1204 l 243 1204 l 243 1046 l 114 1046 l 114 1204 m 331 1204 l 460 1204 l 460 1046 l 331 1046 l 331 1204 z "},"Ž":{"ha":499,"x_min":29,"x_max":472,"o":"m 472 154 l 472 0 l 29 0 l 29 154 l 299 804 l 43 804 l 43 958 l 467 958 l 467 804 l 199 154 l 472 154 m 50 1238 l 171 1238 l 250 1128 l 328 1238 l 449 1238 l 306 1032 l 190 1032 l 50 1238 z "},"ž":{"ha":533,"x_min":53,"x_max":481,"o":"m 481 597 l 218 136 l 481 136 l 481 0 l 53 0 l 53 136 l 319 597 l 53 597 l 53 733 l 481 733 l 481 597 m 67 1013 l 188 1013 l 267 903 l 344 1013 l 465 1013 l 322 807 l 207 807 l 67 1013 z "},"ƒ":{"ha":542,"x_min":10,"x_max":532,"o":"m 10 -74 l 40 -74 q 109 -53 88 -74 q 138 21 131 -33 l 194 439 l 94 439 l 94 585 l 214 585 l 233 732 q 306 903 249 849 q 476 958 364 958 l 532 958 l 532 813 l 494 813 q 426 793 447 813 q 397 719 404 774 l 379 585 l 481 585 l 481 439 l 358 439 l 301 7 q 229 -165 286 -111 q 58 -219 172 -219 l 10 -219 l 10 -74 z "},"ˆ":{"ha":694,"x_min":147,"x_max":546,"o":"m 288 1017 l 403 1017 l 546 811 l 425 811 l 347 922 l 268 811 l 147 811 l 288 1017 z "},"ˇ":{"ha":694,"x_min":147,"x_max":546,"o":"m 147 1013 l 268 1013 l 347 903 l 425 1013 l 546 1013 l 403 807 l 288 807 l 147 1013 z "},"˙":{"ha":694,"x_min":267,"x_max":428,"o":"m 267 969 l 428 969 l 428 835 l 267 835 l 267 969 z "},"˚":{"ha":694,"x_min":217,"x_max":478,"o":"m 347 796 q 254 833 292 796 q 217 926 217 871 q 254 1021 217 983 q 347 1058 292 1058 q 440 1021 403 1058 q 478 926 478 983 q 440 833 478 871 q 347 796 403 796 m 347 864 q 391 882 374 864 q 408 926 408 900 q 391 972 408 954 q 347 990 374 990 q 302 972 319 990 q 285 926 285 954 q 303 882 285 900 q 347 864 321 864 z "},"˜":{"ha":694,"x_min":190,"x_max":503,"o":"m 190 947 q 237 987 218 976 q 282 997 256 997 q 321 990 304 997 q 356 971 338 983 q 389 953 376 958 q 418 949 401 949 q 456 959 440 949 q 503 1003 471 969 l 503 875 q 458 835 476 846 q 413 824 440 824 q 374 831 389 824 q 338 850 358 838 q 306 867 318 861 q 276 872 294 872 q 237 861 254 872 q 190 818 219 850 l 190 947 z "},"̀":{"ha":0,"x_min":-196,"x_max":113,"o":"m -196 1008 l -25 1008 l 113 819 l -25 819 l -196 1008 z "},"́":{"ha":0,"x_min":-112,"x_max":196,"o":"m 25 1008 l 196 1008 l 25 819 l -112 819 l 25 1008 z "},"̂":{"ha":0,"x_min":-200,"x_max":199,"o":"m -60 1017 l 56 1017 l 199 811 l 78 811 l 0 922 l -79 811 l -200 811 l -60 1017 z "},"̃":{"ha":0,"x_min":-157,"x_max":156,"o":"m -157 947 q -110 987 -129 976 q -65 997 -92 997 q -26 990 -43 997 q 8 971 -10 983 q 42 953 29 958 q 71 949 54 949 q 108 959 93 949 q 156 1003 124 969 l 156 875 q 111 835 129 846 q 65 824 93 824 q 26 831 42 824 q -10 850 11 838 q -41 867 -29 861 q -71 872 -53 872 q -110 861 -93 872 q -157 818 -128 850 l -157 947 z "},"̈":{"ha":0,"x_min":-174,"x_max":172,"o":"m -174 979 l -44 979 l -44 821 l -174 821 l -174 979 m 43 979 l 172 979 l 172 821 l 43 821 l 43 979 z "},"̊":{"ha":0,"x_min":-131,"x_max":131,"o":"m 0 796 q -93 833 -56 796 q -131 926 -131 871 q -93 1021 -131 983 q 0 1058 -56 1058 q 93 1021 56 1058 q 131 926 131 983 q 93 833 131 871 q 0 796 56 796 m 0 864 q 44 882 26 864 q 61 926 61 900 q 44 972 61 954 q 0 990 26 990 q -45 972 -28 990 q -62 926 -62 954 q -45 882 -62 900 q 0 864 -28 864 z "},"–":{"ha":579,"x_min":0,"x_max":579,"o":"m 0 557 l 579 557 l 579 404 l 0 404 l 0 557 z "},"—":{"ha":1157,"x_min":0,"x_max":1157,"o":"m 0 557 l 1157 557 l 1157 404 l 0 404 l 0 557 z "},"‘":{"ha":238,"x_min":40,"x_max":197,"o":"m 197 603 l 40 603 l 40 883 l 197 1010 l 197 603 m 99 958 z "},"’":{"ha":238,"x_min":40,"x_max":197,"o":"m 40 958 l 197 958 l 197 678 l 40 551 l 40 958 z "},"‚":{"ha":238,"x_min":40,"x_max":197,"o":"m 40 185 l 197 185 l 197 -96 l 40 -222 l 40 185 z "},"“":{"ha":488,"x_min":40,"x_max":447,"o":"m 197 603 l 40 603 l 40 883 l 197 1010 l 197 603 m 447 603 l 290 603 l 290 883 l 447 1010 l 447 603 m 257 958 z "},"”":{"ha":488,"x_min":40,"x_max":447,"o":"m 40 958 l 197 958 l 197 678 l 40 551 l 40 958 m 290 958 l 447 958 l 447 678 l 290 551 l 290 958 z "},"„":{"ha":488,"x_min":40,"x_max":447,"o":"m 290 185 l 447 185 l 447 -96 l 290 -222 l 290 185 m 40 185 l 197 185 l 197 -96 l 40 -222 l 40 185 z "},"†":{"ha":633,"x_min":57,"x_max":576,"o":"m 576 518 l 403 518 l 403 -219 l 232 -219 l 232 518 l 57 518 l 57 672 l 232 672 l 232 958 l 403 958 l 403 672 l 576 672 l 576 518 z "},"‡":{"ha":633,"x_min":57,"x_max":576,"o":"m 403 518 l 403 232 l 576 232 l 576 78 l 403 78 l 403 -219 l 232 -219 l 232 78 l 57 78 l 57 232 l 232 232 l 232 518 l 57 518 l 57 672 l 232 672 l 232 958 l 403 958 l 403 672 l 576 672 l 576 518 l 403 518 z "},"•":{"ha":550,"x_min":85,"x_max":464,"o":"m 274 239 q 139 293 193 239 q 85 428 85 347 q 139 563 85 510 q 274 617 193 617 q 410 563 356 617 q 464 428 464 508 q 410 293 464 347 q 274 239 356 239 z "},"…":{"ha":883,"x_min":40,"x_max":843,"o":"m 40 183 l 203 183 l 203 0 l 40 0 l 40 183 m 681 183 l 843 183 l 843 0 l 681 0 l 681 183 m 360 183 l 522 183 l 522 0 l 360 0 l 360 183 z "},"‰":{"ha":1453,"x_min":43,"x_max":1410,"o":"m 653 969 l 767 969 l 406 0 l 292 0 l 653 969 m 197 369 q 43 525 43 369 l 43 811 q 197 967 43 967 q 351 811 351 967 l 351 525 q 197 369 351 369 m 197 472 q 230 487 221 472 q 239 542 239 501 l 239 794 q 230 850 239 836 q 197 864 221 864 q 165 850 174 864 q 157 794 157 836 l 157 542 q 165 487 157 501 q 197 472 174 472 m 861 -10 q 707 146 707 -10 l 707 432 q 861 588 707 588 q 1015 432 1015 588 l 1015 146 q 861 -10 1015 -10 m 1256 -10 q 1101 146 1101 -10 l 1101 432 q 1256 588 1101 588 q 1410 432 1410 588 l 1410 146 q 1256 -10 1410 -10 m 861 93 q 894 108 885 93 q 903 163 903 122 l 903 415 q 894 471 903 457 q 861 485 885 485 q 829 471 838 485 q 821 415 821 457 l 821 163 q 829 108 821 122 q 861 93 838 93 m 1256 93 q 1288 108 1279 93 q 1297 163 1297 122 l 1297 415 q 1288 471 1297 457 q 1256 485 1279 485 q 1224 471 1232 485 q 1215 415 1215 457 l 1215 163 q 1224 108 1215 122 q 1256 93 1232 93 z "},"‹":{"ha":346,"x_min":19,"x_max":289,"o":"m 19 367 l 289 642 l 289 489 l 169 367 l 289 244 l 289 92 l 19 367 z "},"›":{"ha":356,"x_min":57,"x_max":326,"o":"m 57 244 l 176 367 l 57 489 l 57 642 l 326 367 l 57 92 l 57 244 z "},"€":{"ha":631,"x_min":28,"x_max":578,"o":"m 342 -12 q 163 51 221 -12 q 104 243 104 115 l 104 335 l 28 335 l 28 447 l 104 447 l 104 518 l 28 518 l 28 631 l 104 631 l 104 718 q 165 907 104 842 q 343 972 225 972 q 517 909 458 972 q 578 722 576 846 l 418 722 q 400 798 417 774 q 347 822 383 822 q 292 797 308 822 q 275 722 275 772 l 275 631 l 489 631 l 469 518 l 275 518 l 275 447 l 458 447 l 438 335 l 275 335 l 275 242 q 291 163 275 189 q 344 138 307 138 q 398 163 381 138 q 418 238 415 188 l 578 238 q 342 -12 568 -12 z "},"™":{"ha":863,"x_min":29,"x_max":804,"o":"m 129 851 l 29 851 l 29 958 l 347 958 l 347 851 l 246 851 l 246 411 l 129 411 l 129 851 m 406 958 l 524 958 l 607 656 l 610 656 l 688 958 l 804 958 l 804 411 l 696 411 l 696 696 l 693 696 l 640 497 l 571 497 l 517 696 l 514 696 l 514 411 l 406 411 l 406 958 z "},"ﬁ":{"ha":685,"x_min":38,"x_max":622,"o":"m 349 844 q 288 826 306 844 q 271 764 271 808 l 271 733 l 369 733 l 369 621 l 271 621 l 271 0 l 111 0 l 111 621 l 38 621 l 38 733 l 111 733 l 111 775 q 300 958 111 958 l 369 958 l 369 844 l 349 844 m 461 733 l 622 733 l 622 0 l 461 0 l 461 733 m 461 958 l 622 958 l 622 824 l 461 824 l 461 958 z "},"ﬂ":{"ha":732,"x_min":38,"x_max":713,"o":"m 349 844 q 288 826 306 844 q 271 764 271 808 l 271 733 l 369 733 l 369 621 l 271 621 l 271 0 l 111 0 l 111 621 l 38 621 l 38 733 l 111 733 l 111 775 q 300 958 111 958 l 369 958 l 369 844 l 349 844 m 704 0 q 456 228 456 0 l 456 958 l 617 958 l 617 238 q 706 144 617 144 l 713 144 l 713 0 l 704 0 z "}}}
